/* XPM */
static char *btn_connect[] = {
/* columns rows colors chars-per-pixel */
"32 32 65 1",
"  c #F7A905",
". c #1F5BDA",
"X c #D46C02",
"o c #6CB1F5",
"O c #EB9303",
"+ c #54A7FB",
"@ c #BBE6FE",
"# c #E6F9FF",
"$ c #D7B38F",
"% c #C5E9FE",
"& c #C5C4C4",
"* c #A4D2F9",
"= c #81B7F3",
"- c #EFD0A7",
"; c #BCB6A7",
": c #CCF0FF",
"> c #4A8FEC",
", c #D3F2FF",
"< c #FDD713",
"1 c #F8C00C",
"2 c #95B4D4",
"3 c #94C6F6",
"4 c #C48A4F",
"5 c #D08334",
"6 c #6EC3FF",
"7 c #B1DCFC",
"8 c #FEE617",
"9 c #81C6FE",
"0 c #CCA773",
"q c #9AD7FF",
"w c #BCA48C",
"e c #FFF71B",
"r c #F0B133",
"t c #DCF5FF",
"y c #F2FBFF",
"u c #ACE3FF",
"i c #D1A24A",
"p c #F6CB6C",
"a c #A1CBF8",
"s c #C0D6F0",
"d c #6499EC",
"f c #CC9763",
"g c #E18608",
"h c #FCCE10",
"j c #3A80E9",
"k c #3972E1",
"l c #CEFAFF",
"z c #C57222",
"x c #DFFEFF",
"c c #DD9735",
"v c #8CCEFF",
"b c #063BCE",
"n c #A79970",
"m c #AFBAC5",
"M c #98BEEF",
"N c #8BC7EF",
"B c #4F5DA0",
"V c #9D9A80",
"C c #8AA0BC",
"Z c #9FA7A3",
"A c #9AB9B7",
"S c #BCEEFF",
"D c #FFFF1E",
"F c gray100",
"G c None",
/* pixels */
"GGGGGGGGGGGGGGGGGGGGp     OrGGGG",
"GGGGGGGGGGGGGGGGGGGG <888<OiGGGG",
"GGGGGGGGGGGGGGGGGGG- eDDD<O;GGGG",
"GGGGGGGGGGGGGGGGGGGrhDDDD c&GGGG",
"GGGGGGGGG*od++=7GGG <DDD8O0GGGGG",
"GGGGGGG*2@uu,%a=+ap DDDD1O&GGGGG",
"GGGGGG7S:,,,tuqvvorhDDDeO0&GGGGG",
"GGGGG@uSlxxxlSuq9A 8DDDhO;GGGGGG",
"GGGGqquSxyyxlSuqv0 DDDDOgccccGGG",
"GGG=9q%#yyyylSuqN hDDDD<111ggGGG",
"GGaoq,###yyl:Suq; 11h18eeD<X0GGG",
"GG+9%tt##t:SSuu9Aiiicgheeeg5&GGG",
"G:>9,,tttuuuuqv96+++nO8e81XwGGGG",
"G3>3:,,t,qqqqv96o+++g1888g4&GGGG",
"G=>+6@,,t@vv996o+++Vg<88 X;GGGGG",
"Goj>+6S:,,%@voo++++g 8<<X5$$GGGG",
"Gokj>+6u::,,u+++++Zgh<<1XXXX0GGG",
"Go.kjj+q%:::7+++j>cO<<<h<<gX&GGG",
"G=b..jd*7@%%u>jk.Zgggghh< Xf&GGG",
"G7bb.da@%::,:>..>aCBzghh1Xz&GGGG",
"GGjbka7%:,tttakM7=kkX 11OXwGGGGG",
"GG3bd*@%,t###t,:@=M2X 1 X4&GGGGG",
"GGGd.*@:t#yyy#t,%7awX11Xz&GGGGGG",
"GGG*=7%:t#yyy#t,%7*4g OXwGGGGGGG",
"GGGG3*@:t#yyy#t,%73zO X4&GGGGGGG",
"GGGGGMv7>Mass@t:@9CXOXz;GGGGGGGG",
"GGGGGGsok.bbbb.==20XgXw&GGGGGGGG",
"GGGGGGGG&2=doo2m&GfXX4&GGGGGGGGG",
"GGGGGGGGGGGGGGGGGG5XX;GGGGGGGGGG",
"GGGGGGGGGGGGGGGGGGXXw&GGGGGGGGGG",
"GGGGGGGGGGGGGGGGG-X5&GGGGGGGGGGG",
"GGGGGGGGGGGGGGGGG$X&GGGGGGGGGGGG"
};
