/* XPM */
static char * btn_barajas_xpm[] = {
"32 32 559 2",
"  	c None",
". 	c #2E45A8",
"+ 	c #253787",
"@ 	c #304BBE",
"# 	c #304ABA",
"$ 	c #334FC3",
"% 	c #2C46B9",
"& 	c #2840AC",
"* 	c #17276F",
"= 	c #314DC4",
"- 	c #304CC3",
"; 	c #2D49BE",
"> 	c #2A44B6",
", 	c #2741B2",
"' 	c #2E49BF",
") 	c #2742B6",
"! 	c #2744BC",
"~ 	c #2744C1",
"{ 	c #2642BB",
"] 	c #2845C2",
"^ 	c #2C48C3",
"/ 	c #2E4AC3",
"( 	c #3753CA",
"_ 	c #2B47BE",
": 	c #2845C0",
"< 	c #2945C2",
"[ 	c #2845C3",
"} 	c #2A46C0",
"| 	c #2B45B9",
"1 	c #243EB0",
"2 	c #2641B4",
"3 	c #2642B8",
"4 	c #2843BD",
"5 	c #2845BF",
"6 	c #2C48C2",
"7 	c #314CBF",
"8 	c #2F4ABE",
"9 	c #324CBB",
"0 	c #2D49C0",
"a 	c #2844C0",
"b 	c #2744BF",
"c 	c #2844BE",
"d 	c #2844BD",
"e 	c #2D48BE",
"f 	c #243EAE",
"g 	c #2641B3",
"h 	c #2642B7",
"i 	c #2843BB",
"j 	c #2B46BB",
"k 	c #2743BC",
"l 	c #2844BF",
"m 	c #2742B8",
"n 	c #2943B8",
"o 	c #2C47BC",
"p 	c #334FC6",
"q 	c #2540B2",
"r 	c #2641B5",
"s 	c #2742BA",
"t 	c #2946C4",
"u 	c #2F49BF",
"v 	c #253EAF",
"w 	c #263EA3",
"x 	c #152856",
"y 	c #182A71",
"z 	c #2139A0",
"A 	c #2743BF",
"B 	c #2845C1",
"C 	c #2743BB",
"D 	c #2641B6",
"E 	c #253FB2",
"F 	c #253FB1",
"G 	c #2842B3",
"H 	c #2A44B4",
"I 	c #2D46B5",
"J 	c #304AB9",
"K 	c #2E44A7",
"L 	c #253EB0",
"M 	c #2744C0",
"N 	c #2946C5",
"O 	c #324DC1",
"P 	c #3350C8",
"Q 	c #2944B8",
"R 	c #2642BA",
"S 	c #2744BD",
"T 	c #223889",
"U 	c #081D08",
"V 	c #020402",
"W 	c #020301",
"X 	c #060B1A",
"Y 	c #101B4B",
"Z 	c #1A2C7B",
"` 	c #2442AA",
" .	c #2846C6",
"..	c #2642B9",
"+.	c #243EAD",
"@.	c #243DAC",
"#.	c #223BA7",
"$.	c #233BA4",
"%.	c #1F3388",
"&.	c #2842B5",
"*.	c #2843B9",
"=.	c #3B54B2",
"-.	c #485FA9",
";.	c #51618B",
">.	c #898B90",
",.	c #253B9A",
"'.	c #676C7F",
").	c #91949B",
"!.	c #999A9B",
"~.	c #6B749A",
"{.	c #1A2D65",
"].	c #071606",
"^.	c #040901",
"/.	c #050C01",
"(.	c #061402",
"_.	c #030702",
":.	c #081606",
"<.	c #0F2B09",
"[.	c #070D1E",
"}.	c #101C4D",
"|.	c #1A2D7D",
"1.	c #2441AD",
"2.	c #2B47C0",
"3.	c #253FAD",
"4.	c #253FAF",
"5.	c #253EAA",
"6.	c #233BA3",
"7.	c #172871",
"8.	c #2C46B2",
"9.	c #495993",
"0.	c #727F91",
"a.	c #8192AE",
"b.	c #98A7C2",
"c.	c #CAD1DB",
"d.	c #F1F1F2",
"e.	c #263B99",
"f.	c #A1ABD0",
"g.	c #EDF1FE",
"h.	c #FFFFFF",
"i.	c #7382BD",
"j.	c #111C41",
"k.	c #081805",
"l.	c #071502",
"m.	c #060F02",
"n.	c #050B01",
"o.	c #0C1807",
"p.	c #28531F",
"q.	c #397D2E",
"r.	c #22671A",
"s.	c #0D3007",
"t.	c #081A04",
"u.	c #092305",
"v.	c #0F2A22",
"w.	c #142E48",
"x.	c #1A2D75",
"y.	c #283FA2",
"z.	c #2B43A9",
"A.	c #19286A",
"B.	c #253B99",
"C.	c #576AA7",
"D.	c #A9BEDE",
"E.	c #B2CBF1",
"F.	c #C4D1E6",
"G.	c #EBEDEF",
"H.	c #EBEBEB",
"I.	c #243B99",
"J.	c #C2C1C9",
"K.	c #F4F4F5",
"L.	c #F8F4F2",
"M.	c #3C50A3",
"N.	c #0B161E",
"O.	c #0A2405",
"P.	c #0B2404",
"Q.	c #091A03",
"R.	c #071402",
"S.	c #3C5F36",
"T.	c #59AF50",
"U.	c #3FC032",
"V.	c #229D13",
"W.	c #176D0A",
"X.	c #17550A",
"Y.	c #154C09",
"Z.	c #0D2E05",
"`.	c #071503",
" +	c #040A02",
".+	c #08150F",
"++	c #162C4C",
"@+	c #19296C",
"#+	c #3E54A5",
"$+	c #96ADD5",
"%+	c #A1BDED",
"&+	c #B7BECC",
"*+	c #EAE9E8",
"=+	c #ECECEB",
"-+	c #233A98",
";+	c #B2A7A9",
">+	c #FAF5F4",
",+	c #C5BEC8",
"'+	c #203387",
")+	c #050B07",
"!+	c #081A03",
"~+	c #0E3205",
"{+	c #134407",
"]+	c #29721C",
"^+	c #7CCA75",
"/+	c #6BDE59",
"(+	c #2FA21C",
"_+	c #1B970C",
":+	c #1A860B",
"<+	c #298314",
"[+	c #286A16",
"}+	c #234018",
"|+	c #1D2914",
"1+	c #0E1A07",
"2+	c #153F20",
"3+	c #193858",
"4+	c #889FCA",
"5+	c #95B0DF",
"6+	c #9EA4B0",
"7+	c #9C9492",
"8+	c #826C66",
"9+	c #233A99",
"0+	c #B7BAC7",
"a+	c #EDEFF4",
"b+	c #9599BE",
"c+	c #1A2F64",
"d+	c #071607",
"e+	c #071702",
"f+	c #0D2C06",
"g+	c #2A6420",
"h+	c #68C35A",
"i+	c #66D353",
"j+	c #3EA721",
"k+	c #1E7D0D",
"l+	c #177E09",
"m+	c #1D7D0E",
"n+	c #37861F",
"o+	c #6B884B",
"p+	c #544E38",
"q+	c #494F31",
"r+	c #2A2C19",
"s+	c #15352B",
"t+	c #192E6A",
"u+	c #667DBB",
"v+	c #90A1C1",
"w+	c #9EA1AA",
"x+	c #938989",
"y+	c #8F5C59",
"z+	c #243A99",
"A+	c #B2B8D1",
"B+	c #E4EAFC",
"C+	c #6577BB",
"D+	c #142841",
"E+	c #0B2406",
"F+	c #113409",
"G+	c #28651F",
"H+	c #48B037",
"I+	c #58BC3B",
"J+	c #40971D",
"K+	c #2C6F0D",
"L+	c #367810",
"M+	c #24770C",
"N+	c #257113",
"O+	c #3A7222",
"P+	c #4F752F",
"Q+	c #5E5939",
"R+	c #595037",
"S+	c #58483B",
"T+	c #423F54",
"U+	c #192B73",
"V+	c #4D63AD",
"W+	c #8E9FBE",
"X+	c #A9ADB6",
"Y+	c #B0AEAF",
"Z+	c #9C8F8E",
"`+	c #768ACB",
" @	c #7F9DF3",
".@	c #344AA3",
"+@	c #0C1B1D",
"@@	c #081904",
"#@	c #1E5213",
"$@	c #73AC63",
"%@	c #75A25C",
"&@	c #3C7520",
"*@	c #30640B",
"=@	c #325D0D",
"-@	c #376512",
";@	c #437825",
">@	c #4C6D32",
",@	c #5B5A3A",
"'@	c #695C44",
")@	c #5F513B",
"!@	c #51412F",
"~@	c #4E413D",
"{@	c #3C3E62",
"]@	c #192B74",
"^@	c #3249A0",
"/@	c #7C96C7",
"(@	c #B0B9C9",
"_@	c #CACBCF",
":@	c #B3B4B5",
"<@	c #263C9A",
"[@	c #4B69C3",
"}@	c #8FA4E6",
"|@	c #233985",
"1@	c #0E2E0B",
"2@	c #123D08",
"3@	c #295B1B",
"4@	c #AFBA9C",
"5@	c #748A5C",
"6@	c #355817",
"7@	c #204F0B",
"8@	c #2F5710",
"9@	c #5E763F",
"0@	c #677D48",
"a@	c #6A774B",
"b@	c #696449",
"c@	c #625441",
"d@	c #4F3E2D",
"e@	c #53494C",
"f@	c #30396B",
"g@	c #6E89C2",
"h@	c #9FB2D1",
"i@	c #CFD4DC",
"j@	c #D2D4D7",
"k@	c #5B76C7",
"l@	c #667ED1",
"m@	c #1E2F67",
"n@	c #0D1F0B",
"o@	c #345628",
"p@	c #6B8B56",
"q@	c #A0AB87",
"r@	c #87986C",
"s@	c #4C662C",
"t@	c #3C5921",
"u@	c #54633B",
"v@	c #716750",
"w@	c #666245",
"x@	c #576139",
"y@	c #445827",
"z@	c #4A4F2A",
"A@	c #483D27",
"B@	c #504851",
"C@	c #202F70",
"D@	c #5C74B7",
"E@	c #9BAFD3",
"F@	c #D3D7DF",
"G@	c #E1E0E0",
"H@	c #263C99",
"I@	c #5471C7",
"J@	c #5D74C9",
"K@	c #2E47B2",
"L@	c #2A4195",
"M@	c #47598D",
"N@	c #777E8E",
"O@	c #84856C",
"P@	c #818261",
"Q@	c #676B49",
"R@	c #555439",
"S@	c #635544",
"T@	c #645543",
"U@	c #594838",
"V@	c #534435",
"W@	c #463627",
"X@	c #493C29",
"Y@	c #493B29",
"Z@	c #4A3C31",
"`@	c #434155",
" #	c #192A74",
".#	c #4258A3",
"+#	c #9CABC5",
"@#	c #D5D8D7",
"##	c #A3AEAD",
"$#	c #2C4099",
"%#	c #8897CE",
"&#	c #3C54BF",
"*#	c #243DA5",
"=#	c #243DA6",
"-#	c #2941AA",
";#	c #2C45B0",
">#	c #2C46B7",
",#	c #3B50A6",
"'#	c #485288",
")#	c #42415B",
"!#	c #544941",
"~#	c #584736",
"{#	c #534131",
"]#	c #413328",
"^#	c #403225",
"/#	c #473727",
"(#	c #453525",
"_#	c #453935",
":#	c #373A5E",
"<#	c #192A73",
"[#	c #34479B",
"}#	c #7F8FB5",
"|#	c #8C98C8",
"1#	c #4D65B0",
"2#	c #2E47AE",
"3#	c #2E48B5",
"4#	c #2D46B4",
"5#	c #223AA3",
"6#	c #2139A2",
"7#	c #21389D",
"8#	c #203596",
"9#	c #22399F",
"0#	c #233BA6",
"a#	c #2741B5",
"b#	c #31429A",
"c#	c #3D4379",
"d#	c #292843",
"e#	c #271E19",
"f#	c #3D2F21",
"g#	c #423323",
"h#	c #41383B",
"i#	c #293163",
"j#	c #2D46AB",
"k#	c #2D47B2",
"l#	c #2A43AF",
"m#	c #263EA6",
"n#	c #334CBA",
"o#	c #243CA6",
"p#	c #243CA4",
"q#	c #21379D",
"r#	c #2239A1",
"s#	c #21399F",
"t#	c #1F3492",
"u#	c #1D328B",
"v#	c #1D318C",
"w#	c #203699",
"x#	c #233CA7",
"y#	c #253DAD",
"z#	c #314BBA",
"A#	c #374591",
"B#	c #383C68",
"C#	c #3A3B5D",
"D#	c #202D6D",
"E#	c #324BB8",
"F#	c #2A42AD",
"G#	c #223AA2",
"H#	c #253CA7",
"I#	c #203594",
"J#	c #1C3188",
"K#	c #1D338E",
"L#	c #1F3698",
"M#	c #203698",
"N#	c #1E318C",
"O#	c #1C2F85",
"P#	c #1D318A",
"Q#	c #1E338F",
"R#	c #22389F",
"S#	c #2239A2",
"T#	c #223BA4",
"U#	c #223AA4",
"V#	c #253CA1",
"W#	c #263B96",
"X#	c #172562",
"Y#	c #2C45B3",
"Z#	c #2841AE",
"`#	c #263EA7",
" $	c #1E328D",
".$	c #1C3086",
"+$	c #1C3085",
"@$	c #1C3189",
"#$	c #1D328D",
"$$	c #1E3491",
"%$	c #1D318B",
"&$	c #1B2D82",
"*$	c #1C3087",
"=$	c #1D328C",
"-$	c #1E3390",
";$	c #1C3088",
">$	c #16266E",
",$	c #111C51",
"'$	c #2740AD",
")$	c #1F3595",
"!$	c #263DA8",
"~$	c #253DA3",
"{$	c #1B2F84",
"]$	c #1B2F85",
"^$	c #192A78",
"/$	c #1A2D7F",
"($	c #1C2F87",
"_$	c #1A2E82",
":$	c #1B2E83",
"<$	c #1A2D7E",
"[$	c #1A2C7D",
"}$	c #1C2F86",
"|$	c #1C3089",
"1$	c #1D3189",
"2$	c #16256A",
"3$	c #263DA9",
"4$	c #1F3491",
"5$	c #263C9E",
"6$	c #213690",
"7$	c #1C318B",
"8$	c #182976",
"9$	c #192A79",
"0$	c #1B2E82",
"a$	c #1A2C7C",
"b$	c #192B79",
"c$	c #1B2E81",
"d$	c #13225F",
"e$	c #263EA9",
"f$	c #22389A",
"g$	c #253B9B",
"h$	c #192A71",
"i$	c #111E57",
"j$	c #121F5A",
"k$	c #152568",
"l$	c #172872",
"m$	c #182974",
"n$	c #182872",
"o$	c #172873",
"p$	c #182A77",
"q$	c #182A78",
"r$	c #192B7A",
"s$	c #1C3084",
"t$	c #1A2C7A",
"u$	c #111D53",
"v$	c #2941A9",
"w$	c #16266D",
"x$	c #13225D",
"y$	c #111F56",
"z$	c #101E54",
"A$	c #12205A",
"B$	c #152464",
"C$	c #17266C",
"D$	c #182A76",
"E$	c #1B2F82",
"F$	c #162569",
"G$	c #101B4F",
"H$	c #273EA2",
"I$	c #223480",
"J$	c #13215C",
"K$	c #101D51",
"L$	c #101B4D",
"M$	c #101C4F",
"N$	c #122056",
"O$	c #111F55",
"P$	c #0E1A48",
"Q$	c #0E1947",
"R$	c #0F1B4C",
"S$	c #101B4C",
"T$	c #111E54",
"U$	c #142260",
"V$	c #152364",
"W$	c #17286F",
"X$	c #192A75",
"Y$	c #1A2B7A",
"Z$	c #121F59",
"`$	c #213480",
" %	c #172767",
".%	c #0F1A4B",
"+%	c #0D1741",
"@%	c #0F1C4E",
"#%	c #0E1743",
"$%	c #0D1740",
"%%	c #0A102E",
"                                                                ",
"                                                                ",
"                                  . +                           ",
"                          @ # $ % & *                           ",
"                    = - ; > , ' ) ! ~ { ]                       ",
"            ] ^ / ( _ : < [ } | 1 2 3 4 5 6 - 7 8 9 +           ",
"    0 5 a b c d 4 e f g h i / j 2 3 k c l d m n o ' 8 @         ",
"  p j q r s c ] t u v 2 i c w x y z A [ t t B C D E F G H I J K ",
"    | L r k M N O P Q R S { T U V W X Y Z `  .[ l ..E +.@.#.$.%.",
"    - &.*.=.-.;.>.,.'.).!.~.{.].^./.(._.:.<.[.}.|.1.2.3.4.5.6.7.",
"    8.9.0.a.b.c.d.e.f.g.h.i.j.k.l.m.n.o.p.q.r.s.t.u.v.w.x.y.z.A.",
"    B.C.D.E.F.G.H.I.J.K.L.M.N.O.P.Q.R.S.T.U.V.W.X.Y.Z.`. +.+++@+",
"      #+$+%+&+*+=+-+;+>+,+'+)+!+~+{+]+^+/+(+_+:+<+[+}+|+1+2+3+  ",
"      -+4+5+6+7+8+9+0+a+b+c+d+e+f+g+h+i+j+k+l+m+n+o+p+q+r+s+t+  ",
"      -+u+v+w+x+y+z+A+B+C+D+E+F+G+H+I+J+K+L+M+N+O+P+Q+R+S+T+U+  ",
"        V+W+X+Y+Z+B.`+ @.@+@@@#@$@%@&@*@=@-@;@>@,@'@)@!@~@{@]@  ",
"        ^@/@(@_@:@<@[@}@|@1@2@3@4@5@6@7@8@9@0@a@b@c@!@d@e@f@    ",
"        B.g@h@i@j@9+k@l@m@n@o@p@q@r@s@t@u@v@w@x@y@z@A@d@B@C@    ",
"        9+D@E@F@G@H@I@J@K@L@M@N@O@P@Q@R@S@T@U@V@W@X@Y@Z@`@ #    ",
"          .#+#@###$#%#&#*#=#-#;#>#,#'#)#!#~#{#]#^#/#(#_#:#<#    ",
"          [#}#|#1#2#3#4#5#6#7#8#9#0#f a#i b#c#d#e#f#g#h#i#      ",
"          j#k#l#m#n#o#p#q#r#s#t#u#v#w#9#x#y#, >#z#A#B#C#D#      ",
"          E#F#G#z z#H#I#J#K#L#M#N#O#P#Q#8#R#S#T#U#V#<@W#X#      ",
"            Y#r#r#Z#`# $.$+$@$#$$$ $%$&$*$=$-$7#G#M#;$>$,$      ",
"            '$)$$$!$~$@${$.$]$^$/$($=$_$:$<$[$}$|$u#1$2$        ",
"            3$4$.$5$6$7$|$*$]$8$8$9$/$.$0$a$Z b$_$c$*$d$        ",
"            e$f$*$g$h$i$j$k$l$m$m$n$n$o$p$q$r$:$=$s$t$u$        ",
"              V#=$v$$$=$^$w$x$y$z$A$B$C$m$D$m$r$0$E$F$G$        ",
"              H$|.I$J$K$L$M$N$O$P$Q$R$S$T$U$V$W$X$Y$Z$          ",
"              `$ %                        .%+%+%@%A$#%          ",
"                                                  $%%%          ",
"                                                                "};
