/* XPM */
static char *btn_irc[] = {
/* columns rows colors chars-per-pixel */
"32 32 65 1",
"  c #622805",
". c #FEE01B",
"X c #64B4FE",
"o c #CC6907",
"O c #E2CFB5",
"+ c #B38A56",
"@ c #0C8EFF",
"# c #F9ECC9",
"$ c #FA2424",
"% c #FFC886",
"& c #FE4444",
"* c #FC0707",
"= c #3C89E0",
"- c #B5100E",
"; c #D3B893",
": c #FFABAB",
"> c #2C4198",
", c #A9D6FF",
"< c #D10404",
"1 c #9F6658",
"2 c #AC7733",
"3 c #2267C6",
"4 c #CD8E53",
"5 c #C8A577",
"6 c #FEC27D",
"7 c #FCF8E6",
"8 c #FFED90",
"9 c #5D629C",
"0 c #CD7E2E",
"q c #172184",
"w c #FECD92",
"e c #B76D1B",
"r c #B85A03",
"t c #FEAE63",
"y c #FE6E6E",
"u c #FFBD75",
"i c #FFB368",
"p c #B79C81",
"a c #FFD4A2",
"s c #EDB779",
"d c #E5AB03",
"f c #D26B68",
"g c #FF8888",
"h c #E49A48",
"j c #E8A531",
"k c #773D1A",
"l c #EEAB46",
"z c #C83533",
"x c #38A2FE",
"c c #EAAA63",
"v c #FFE55C",
"b c #D77F06",
"n c #98673A",
"m c #D78B3C",
"M c #EF9A06",
"N c #2481E5",
"B c #87572F",
"V c #E7D9C5",
"C c #FDD759",
"Z c #7A8AB8",
"A c #9B5C0C",
"S c #DDA461",
"D c #DA9A5D",
"F c gray100",
"G c None",
/* pixels */
"GGGGGGGGGGGGGGGGGGpB k  k1GGGGGG",
"GGGGGGGGGGGGGGGG;kn;777Vpk 1GGGG",
"GGGGGG;D0045GGG+kp#VVV#V#V2 kGGG",
"GGGGDoms66cbo4p ;OVOVVOOOOO2 kGG",
"GGGom#77777#ubr2;;;;;;;;;;;;k +G",
"GGol#########8Mr455555555+B  kpG",
"G0j88888888888CMr++++++2k BpwrGG",
";bv8888888888Clorr222ek nOV#a0+G",
"0dvvvvvvvvv.br0mrAAAA k5awuttm2G",
"o..C...C..brDa#aeAk  +awitttth2G",
"o.......drmaVw6i0AnDw%uiiiiiim2G",
"o.....doosa%itttmm%6666666666epG",
"oddbbo0cw%ittiitmm%%%%%%%%%%crGG",
"Gmmcc6666uuuuuuu0DwwwwwwwwwsrpGG",
"G;b%%%%%%%%%%%%iAosaaaaaaacrpGGG",
"GGmhwwwwwwwwwwwe+pe0SsssSeepGGGG",
"GGGohawawawaww0eGGG5+nBB+pGGGGGG",
"GGGG00saaaawSe2GGGGZ3333>9GGGGGG",
"GGGGG5er00eA2pGGGG33X,,,XN>ZGGGG",
"GGGGGGGf---fpGGGG3=,,,,,,,x>9GGG",
"GGGGGf<<&z$<<zGG3N,,,,,,,,,xqZGG",
"GGGGz<&::a:Oy<-93XXXXXXXXXXXNqGG",
"GGGz<y:::::::g<-=xXXXXXXXXXxx>9G",
"GGf<&gggggggggy<kxxxxxxx@@@@@@qG",
"GG<$yyyyyyyyyyy$-9@@@@@@@@@@@@q9",
"Gf<&&y&y&y&&$$$$<-@@@@@@@@@@@@3>",
"G-*&&&$&&&$*****<-3@@@x@@@@@@@Nq",
"G<*$$$$$$********<9xxxxxxxxxxxxq",
"f<***************<k===========3q",
"z$$$$$$$$$$$$$$$$$->>>>>>>>>q>qq",
"z$&&&&&&&&&&&&&&&z-GGGGGGGGGGGGG",
"z---<--------------GGGGGGGGGGGGG"
};
