/* XPM */
static char * btn_connect2_xpm[] = {
"32 32 111 2",
"  	c None",
". 	c #907400",
"+ 	c #8B7000",
"@ 	c #876D00",
"# 	c #826900",
"$ 	c #7C6400",
"% 	c #9E7F00",
"& 	c #9A7D00",
"* 	c #977A00",
"= 	c #BD9700",
"- 	c #C9A000",
"; 	c #CC9C00",
"> 	c #A48000",
", 	c #A58500",
"' 	c #D2A600",
") 	c #D0A300",
"! 	c #755F00",
"~ 	c #D5AA00",
"{ 	c #6E5900",
"] 	c #DBB300",
"^ 	c #E1BC00",
"/ 	c #D8AD00",
"( 	c #DFB600",
"_ 	c #EFCB00",
": 	c #F8D800",
"< 	c #FBDD00",
"[ 	c #B49B00",
"} 	c #C3A000",
"| 	c #DBB100",
"1 	c #E2B900",
"2 	c #F4D939",
"3 	c #FDEE81",
"4 	c #FDF4AE",
"5 	c #FDF197",
"6 	c #FDEA60",
"7 	c #D2AE00",
"8 	c #EBC800",
"9 	c #F7E465",
"0 	c #FEF7BE",
"a 	c #FFFCE4",
"b 	c #FDF6C5",
"c 	c #FDF3AF",
"d 	c #FDF08F",
"e 	c #FDEE82",
"f 	c #D9B500",
"g 	c #F7D906",
"h 	c #FFFEF4",
"i 	c #FEF7C6",
"j 	c #FEF5B4",
"k 	c #FEF298",
"l 	c #FEEF82",
"m 	c #DDB800",
"n 	c #FCEA6C",
"o 	c #FEF5B3",
"p 	c #FEF3A3",
"q 	c #FEF6BE",
"r 	c #FEF192",
"s 	c #FEED71",
"t 	c #FCE430",
"u 	c #C6AC00",
"v 	c #F7D803",
"w 	c #FDE748",
"x 	c #D3B800",
"y 	c #FCE965",
"z 	c #FDE954",
"A 	c #E8CE18",
"B 	c #917500",
"C 	c #FDF199",
"D 	c #FEF191",
"E 	c #FEEE7A",
"F 	c #FEEC69",
"G 	c #F5DE38",
"H 	c #A38300",
"I 	c #B59200",
"J 	c #BB9900",
"K 	c #D5B100",
"L 	c #F7D700",
"M 	c #927C12",
"N 	c #FCE220",
"O 	c #FDEF8B",
"P 	c #DFC71D",
"Q 	c #EAC600",
"R 	c #FDED72",
"S 	c #EFD30D",
"T 	c #F3D100",
"U 	c #C6AE0C",
"V 	c #D8C018",
"W 	c #887306",
"X 	c #BB9E12",
"Y 	c #FDEE80",
"Z 	c #F5D500",
"` 	c #FFFBE0",
" .	c #FDEE78",
"..	c #FFFFFF",
"+.	c #977B00",
"@.	c #FEF7C0",
"#.	c #C5AA03",
"$.	c #897000",
"%.	c #FDE850",
"&.	c #CDB103",
"*.	c #BB9B00",
"=.	c #D5B803",
"-.	c #DDBF02",
";.	c #766000",
">.	c #B18E00",
",.	c #E2C302",
"'.	c #7C6500",
").	c #C9A800",
"!.	c #E8C701",
"~.	c #836B00",
"{.	c #D2B100",
"                                      . + @ # $                 ",
"                            % % & * * = - ; ; > $               ",
"                  , , , , , = - ' ' ) ) ) ) ; ; > !             ",
"                , = ~ ~ ~ ~ ' ' ' ' ' ) ) ) ) ; ; > {           ",
"                , ] ~ ~ ~ ~ ~ ' ' ' ' ' ) ) ) ) ; ; > {         ",
"                , ^ ] ~ ~ ~ ~ ~ ' ' ' ' / ( _ : < < [ {         ",
"              , } ^ ^ ] ~ ~ ~ | 1 2 3 4 4 5 5 6 < [ {           ",
"              , 7 ^ ^ ^ 8 9 0 a a b c 4 d e 6 < [ {             ",
"              , f ^ ^ ^ g h h i j k l l l 6 < [ {               ",
"            , } m ^ ^ ^ n h o p l l l l 6 < [ {                 ",
"            , 7 m m ^ 8 q o r l l l s 6 t u {                   ",
"            , f m m m v q r l l l s 6 w x {                     ",
"          , } f f m m y o l l l s 6 z A { B {                   ",
"          , 7 f f m 8 C D l E F 6 6 G { B H I {                 ",
"        , J 7 K f f L o D s 6 6 6 6 M { { { { {                 ",
"        , } 7 7 K f N O s 6 6 6 w w w t P [ {                   ",
"          , } 7 7 Q 6 R 6 6 w w w w w S [ { B {                 ",
"            , } 7 T 6 6 w w w w w w < U { B H I {               ",
"              , } < w w w w w w w t V W { { { { { {             ",
"                , , , , , , X Y t t t t t t < Z [ {             ",
"                    , f = , 6 `  .t t t < < Z [ {               ",
"                    , = , 6 .. .t t < < < Z [ {                 ",
"                      +.< @. .t < < < < Z #.{                   ",
"                    $.< Y %.< < < < < Z &.{                     ",
"                    $.$.$.$.$.*.< Z Z =.{                       ",
"                        $.= $.Z Z Z -.;.                        ",
"                        $.>.$.Z Z ,.'.                          ",
"                          $.).Z !.~.                            ",
"                          $.{.!.$.                              ",
"                          $.{.$.                                ",
"                          $.$.                                  ",
"                          $.                                    "};
