/* XPM */
static char *btn_disconnect[] = {
/* columns rows colors chars-per-pixel */
"32 32 65 1",
"  c #1E5ADA",
". c #6CB1F5",
"X c #D75A56",
"o c #99A2A8",
"O c #F7A804",
"+ c #EB9001",
"@ c #54A7FB",
"# c #D36C02",
"$ c #BBE6FE",
"% c #E9F9FF",
"& c #901610",
"* c #C5E9FE",
"= c #FAFDFF",
"- c #A4D2F9",
"; c #81B7F3",
": c #EDCAA0",
"> c #CCF0FF",
", c #C5C5C5",
"< c #4A8FEC",
"1 c #D3F2FF",
"2 c #FDD713",
"3 c #93B3CF",
"4 c #94C6F6",
"5 c #CF8130",
"6 c #6EC3FF",
"7 c #B1DCFC",
"8 c #FEE617",
"9 c #81C6FE",
"0 c #CAA379",
"q c #9AD7FF",
"w c #FFF71B",
"e c #F0B133",
"r c #C79247",
"t c #DCF5FF",
"y c #F5C10D",
"u c #ACE3FF",
"i c #D2A955",
"p c #CC322D",
"a c #F6CB6C",
"s c #A1CBF8",
"d c #C0D6F0",
"f c #BFB7A7",
"g c #700000",
"h c #6499EC",
"j c #CC9763",
"k c #E0880B",
"l c #3A80E9",
"z c #3A6FDA",
"x c #BEA78D",
"c c #FBCE10",
"v c #CEFAFF",
"b c #DFFEFF",
"n c #DD9735",
"m c #8CCEFF",
"M c #E59492",
"N c #063BCE",
"B c #A8BABA",
"V c #BCEEFF",
"C c #8BC7EF",
"Z c #98BEEF",
"A c #B46D26",
"S c #A29A78",
"D c #FFFF1E",
"F c gray100",
"G c None",
/* pixels */
"GGGGGGGGGGGGGGGGGGGGaOOOOO+eGGGG",
"GGGGGGGGGGGGGGGGGGGGO28882+iGGGG",
"GGGGGGGGGGGGGGGGGGG:OwDDD2+fGGGG",
"GGGGGGGGGGGGGGGGGGGecDDDDOn,GGGG",
"GGGGGGGGG-.h@@;7GGGO2DDD8+0GGGGG",
"GGGGGGG-3$uu1*s;@saODDDDyk,GGGGG",
"GGGGGG7V>111tuqmm.ecDDDw+i,GGGGG",
"GGGGG$uVvbbbvVuq93O8DDDc+fGGGGGG",
"GGGGqquVb%=bvVuqmiODDDDOknnnnGGG",
"GGG;9q*%%==%vVuqCOcDDDDcyyykkGGG",
"GGs.qtt%%%%v>VuqBOycyy8www2#0GGG",
"GG@9*tt%%t>VVuumBnrrn+ywwwk5,GGG",
"G><911tttuuuuqm96.@@S+8w8y#xGGGG",
"G4<4>11t1qqqqm96.@@@ky888kr,GGGG",
"G;<@6$11t$mm996.@@@S+288O#fGGGGG",
"G.l<@6V>11*$m..@@@@kO822#5x:GGGG",
"G.zl<@6u>>11u@@@@@okc22y####0GGG",
"G. zl<@q*>>>7@@@l<k+222c22k#fGGG",
"G;N  lh-7$**u<lz okkkkc&&&&j,GGG",
"G7NN hs$*>>1><  hsozA+&&pp&&GGGG",
"GGlNls7$>1tttszZ7;zz#&XMMXXpgGGG",
"GG4Nh-$*1t%%%t1>$;Z3&&M=MX=X&gGG",
"GGGh -$>t%%=%%t1*7-S&pMM==XXpgGG",
"GGG-;7*>t%%==%t1*7-r&pXX==XXpgGG",
"GGGG4-$>1%%=%%t1*745&&X=XX=p&gGG",
"GGGGGZm7<Zsdd$t>$93#+&pXXXppgGGG",
"GGGGGGd.z NNNNz;;30#k#g&pp&gGGGG",
"GGGGGGGG,Z;h..3B,Gj##r,ggggGGGGG",
"GGGGGGGGGGGGGGGGGG5##fGGGGGGGGGG",
"GGGGGGGGGGGGGGGGGG##0,GGGGGGGGGG",
"GGGGGGGGGGGGGGGGG:#5,GGGGGGGGGGG",
"GGGGGGGGGGGGGGGGG:#,GGGGGGGGGGGG"
};
