/* XPM */
static char * btn_info_xpm[] = {
"32 32 217 2",
"  	c None",
". 	c #000000",
"+ 	c #171717",
"@ 	c #777777",
"# 	c #A8A8A8",
"$ 	c #AEAEAE",
"% 	c #ADADAD",
"& 	c #AAAAAA",
"* 	c #7E7E7E",
"= 	c #212121",
"- 	c #010101",
"; 	c #A6A6A6",
"> 	c #FFFFFF",
", 	c #B9B9B9",
"' 	c #0A0A0A",
") 	c #F8F8F8",
"! 	c #C0C0C0",
"~ 	c #090909",
"{ 	c #727272",
"] 	c #F5F5F5",
"^ 	c #F6F6F6",
"/ 	c #F4F4F4",
"( 	c #F5F4F4",
"_ 	c #FCFCFC",
": 	c #828282",
"< 	c #151515",
"[ 	c #ACACAC",
"} 	c #EEEEEE",
"| 	c #EFEEEE",
"1 	c #F1F1F0",
"2 	c #E0E5F0",
"3 	c #E5E8F0",
"4 	c #F2F1F0",
"5 	c #F9F9F9",
"6 	c #B5B5B5",
"7 	c #252525",
"8 	c #3E3E3E",
"9 	c #B7B7B7",
"0 	c #F3F3F3",
"a 	c #EBEBEB",
"b 	c #EDECEB",
"c 	c #D7DCEB",
"d 	c #C8D0E7",
"e 	c #C5CFE7",
"f 	c #E4E6EC",
"g 	c #F1F1F1",
"h 	c #C2C2C2",
"i 	c #515151",
"j 	c #545454",
"k 	c #EDEDED",
"l 	c #E5E5E5",
"m 	c #E6E6E6",
"n 	c #E7E6E5",
"o 	c #DADEE9",
"p 	c #B2BDDE",
"q 	c #B6C1DF",
"r 	c #E6E8E8",
"s 	c #E6E6E5",
"t 	c #EAEAEA",
"u 	c #C3C3C3",
"v 	c #686868",
"w 	c #565656",
"x 	c #BCBCBC",
"y 	c #E7E7E7",
"z 	c #E0E0E0",
"A 	c #E4E3E1",
"B 	c #E1E3E5",
"C 	c #E5E4E4",
"D 	c #E1E0DF",
"E 	c #C4C4C4",
"F 	c #6B6B6B",
"G 	c #BEBEBE",
"H 	c #E2E2E2",
"I 	c #DCDCDC",
"J 	c #DDDDDD",
"K 	c #DEDEDC",
"L 	c #E0DFDD",
"M 	c #E2E0DC",
"N 	c #E9E7E1",
"O 	c #DEDEDD",
"P 	c #6C6C6C",
"Q 	c #575757",
"R 	c #D8D8D8",
"S 	c #DBDBD9",
"T 	c #CBCFDB",
"U 	c #BEC6D8",
"V 	c #AAB7D5",
"W 	c #8699CD",
"X 	c #D2D5DC",
"Y 	c #D9D9D8",
"Z 	c #C5C5C5",
"` 	c #6F6F6F",
" .	c #5A5A5A",
"..	c #D9D9D9",
"+.	c #D6D6D6",
"@.	c #D5D5D5",
"#.	c #E2E0DB",
"$.	c #7D91C9",
"%.	c #7A8EC5",
"&.	c #7D91C5",
"*.	c #768BC4",
"=.	c #D4D6DB",
"-.	c #D6D6D5",
";.	c #C7C7C7",
">.	c #707070",
",.	c #5B5B5B",
"'.	c #C6C6C6",
").	c #D2D2D2",
"!.	c #D1D1D1",
"~.	c #E3E0D8",
"{.	c #CCD0D9",
"].	c #6A81BD",
"^.	c #667DBD",
"/.	c #D7D9D9",
"(.	c #D3D3D2",
"_.	c #D4D4D4",
":.	c #CACACA",
"<.	c #717171",
"[.	c #5C5C5C",
"}.	c #C8C8C8",
"|.	c #D3D3D3",
"1.	c #D0D0D0",
"2.	c #D3D2D0",
"3.	c #C0C6D2",
"4.	c #5B74B7",
"5.	c #566FB6",
"6.	c #D7D6D7",
"7.	c #D1D1D0",
"8.	c #737373",
"9.	c #5D5D5D",
"0.	c #C9C9C9",
"a.	c #BFC3CF",
"b.	c #4E68B2",
"c.	c #4965AF",
"d.	c #D0D0CF",
"e.	c #CBCBCB",
"f.	c #747474",
"g.	c #5F5F5F",
"h.	c #CECECE",
"i.	c #CCCCCC",
"j.	c #CFCFCF",
"k.	c #D2D1CF",
"l.	c #BDC0CF",
"m.	c #425EAC",
"n.	c #3D59AA",
"o.	c #D4D5D4",
"p.	c #CFCFCE",
"q.	c #767676",
"r.	c #606060",
"s.	c #CDCDCD",
"t.	c #BABFCE",
"u.	c #3655A6",
"v.	c #3150A5",
"w.	c #D5D5D6",
"x.	c #626262",
"y.	c #D3D3D0",
"z.	c #B6BCCD",
"A.	c #2F4FA3",
"B.	c #2A4AA1",
"C.	c #CDD0D3",
"D.	c #D1D0D0",
"E.	c #7A7A7A",
"F.	c #D7D7D7",
"G.	c #E1DED5",
"H.	c #BEC2D1",
"I.	c #2D4DA1",
"J.	c #2A4CA1",
"K.	c #CDD0D5",
"L.	c #DEDBD4",
"M.	c #313131",
"N.	c #E3DFD9",
"O.	c #657BB8",
"P.	c #3D5CAA",
"Q.	c #2D4DA2",
"R.	c #2B4AA2",
"S.	c #425FAA",
"T.	c #7386BC",
"U.	c #E0DED7",
"V.	c #424242",
"W.	c #BABABA",
"X.	c #DEDED9",
"Y.	c #91A0C6",
"Z.	c #9CA8C9",
"`.	c #A8B2CD",
" +	c #9AA7C9",
".+	c #9AA6C8",
"++	c #DEDDD7",
"@+	c #D6D6D7",
"#+	c #DBDBDB",
"$+	c #DADADA",
"%+	c #E0DFDB",
"&+	c #E1E0DB",
"*+	c #474747",
"=+	c #4D4D4D",
"-+	c #DEDEDE",
";+	c #656565",
">+	c #1E1E1E",
",+	c #999999",
"'+	c #DFDFDF",
")+	c #A2A2A2",
"!+	c #2A2A2A",
"~+	c #141414",
"{+	c #1B1B1B",
"]+	c #4F4F4F",
"^+	c #E3E3E3",
"/+	c #E4E4E4",
"(+	c #1A1A1A",
"_+	c #161616",
":+	c #E9E9E9",
"<+	c #191919",
"[+	c #9F9F9F",
"}+	c #ECECEC",
"|+	c #484848",
"1+	c #858585",
"2+	c #1F1F1F",
"3+	c #040404",
"4+	c #030303",
"                                                                ",
"        . + @ # $ % % % % % % % % % % % % % % $ & * = .         ",
"      - ; > > > > > > > > > > > > > > > > > > > > > > , '       ",
"    . % > ) ) ) ) ) ) ) ) ) ) ) ) ) ) ) ) ) ) ) ) ) ) > ! ~     ",
"  . { ] ^ / / / / / / / / / / ( / / / / / / / / / / / / _ : .   ",
"  < [ _ } } } } } } } } } | 1 2 3 4 } } } } } } } } } } 5 6 7   ",
"  8 9 0 a a a a a a a a a b c d e f a a a a a a a a a a g h i   ",
"  j , k l m m m m m m m m n o p q r s m m m m m m m m m t u v . ",
"  w x y z z z z z z z z z z A B C D z z z z z z z z z z m E F . ",
"  w G H I J J J J J J J I K L M N O I J J J J J J J J J z E P . ",
"  Q ! J R R R R R R R R S T U V W X Y R R R R R R R R R I Z ` . ",
"   .u ..+.+.+.+.+.+.+.@.#.$.%.&.*.=.-.+.+.+.+.+.+.+.+.+.R ;.>.. ",
"  ,.'.@.).).).).).).).).!.~.{.].^./.(.).).).).).).).).)._.:.<.. ",
"  [.}.|.1.1.1.1.1.1.1.1.1.2.3.4.5.6.7.1.1.1.1.1.1.1.1.1.).:.8.. ",
"  9.0.1.1.1.1.1.1.1.1.1.1.2.a.b.c.@.d.1.1.1.1.1.1.1.1.1.1.e.f.. ",
"  g.h.i.j.h.h.h.h.h.h.h.h.k.l.m.n.o.p.h.h.h.h.h.h.h.h.j.i.h.q.. ",
"  r.).i.s.j.h.h.h.h.h.h.h.k.t.u.v.w.p.h.h.h.h.h.h.h.j.s.e.!.@ . ",
"  x._.j.h.1.j.j.j.j.j.j.j.y.z.A.B.C.D.j.j.j.j.j.j.j.1.h.j.|.E.. ",
". j F.).).).).).).).).).!.G.H.I.J.K.L.!.).).).).).).).).).+.` . ",
". M.|.+.|.|.|.|.|.|.|.|.N.O.P.Q.R.S.T.U.|.|.|.|.|.|.|.|.@.@.V.. ",
"  . W...F.F.F.F.F.F.F.+.X.Y.Z.`.`. +.+++@+F.F.F.F.F.F.F.#+;.. . ",
"  . M.I J $+$+$+$+$+$+$+$+%+&+%+%+&+%+$+$+$+$+$+$+$+$+I I *+.   ",
"  . . =+F.z -+-+-+-+-+-+-+-+-+-+-+-+I I I I J -+-+-+z I ;+. .   ",
"    . . >+,+@.I J J J J J J J J I J '+J -+'+z I #++.)+!+. .     ",
"      . . . . ~+{+{+{+{+{+{+{+{+{+< ]+^+/+0.{+(+_+. . . .       ",
"        . . . . . . . . . . . . . . i :+z <+. . . . . .         ",
"                                  . [+}+|+. .                   ",
"                                  . |.1+. .                     ",
"                                  2+& . .                       ",
"                                  8 3+.                         ",
"                                  4+. .                         ",
"                                . . .                           "};
