/* XPM */
static char * btn_salir_xpm[] = {
"32 32 623 2",
"  	c None",
". 	c #AC8136",
"+ 	c #AF8842",
"@ 	c #93743E",
"# 	c #CFB78A",
"$ 	c #B3A183",
"% 	c #8D5100",
"& 	c #9A6001",
"* 	c #985E00",
"= 	c #8D5600",
"- 	c #8D5400",
"; 	c #8C5300",
"> 	c #8C5200",
", 	c #7E4900",
"' 	c #845B11",
") 	c #A87E35",
"! 	c #A3885A",
"~ 	c #C8AE7F",
"{ 	c #B4A68E",
"] 	c #E9DDCA",
"^ 	c #BC9B62",
"/ 	c #A97E33",
"( 	c #AC8036",
"_ 	c #AD833A",
": 	c #8D5800",
"< 	c #DF9633",
"[ 	c #F4AD49",
"} 	c #F5AD3F",
"| 	c #EDA73C",
"1 	c #E19D36",
"2 	c #D6942F",
"3 	c #CA8A28",
"4 	c #BD7E1E",
"5 	c #B37515",
"6 	c #A5690A",
"7 	c #925800",
"8 	c #8C5400",
"9 	c #8B5200",
"0 	c #905500",
"a 	c #140900",
"b 	c #824E00",
"c 	c #774705",
"d 	c #784805",
"e 	c #764705",
"f 	c #8E5900",
"g 	c #DB9734",
"h 	c #EEB85D",
"i 	c #C8D8DD",
"j 	c #D6D5C7",
"k 	c #D9CFB0",
"l 	c #DECAA1",
"m 	c #E3C48B",
"n 	c #E9BF7A",
"o 	c #EEBD68",
"p 	c #F3B655",
"q 	c #F7B44A",
"r 	c #F7AF40",
"s 	c #F0AC44",
"t 	c #E6A442",
"u 	c #D69332",
"v 	c #B06F0C",
"w 	c #211200",
"x 	c #7D7E80",
"y 	c #764704",
"z 	c #5C3614",
"A 	c #5E3713",
"B 	c #5B3514",
"C 	c #8C5700",
"D 	c #D89630",
"E 	c #DDC799",
"F 	c #D8EEFF",
"G 	c #EBF9FF",
"H 	c #E7F6FF",
"I 	c #E3F3FF",
"J 	c #E0F1FF",
"K 	c #DBF0FF",
"L 	c #D7ECFF",
"M 	c #D3EAFF",
"N 	c #D0E9FF",
"O 	c #D0E5FB",
"P 	c #DDC08E",
"Q 	c #F5B84E",
"R 	c #F1B04C",
"S 	c #BB7916",
"T 	c #838486",
"U 	c #AB8036",
"V 	c #7D4B02",
"W 	c #5D3713",
"X 	c #603913",
"Y 	c #5C3713",
"Z 	c #895500",
"` 	c #D4922C",
" .	c #E2C791",
"..	c #E9E3EF",
"+.	c #F8B5B7",
"@.	c #F9CED1",
"#.	c #FAE3E5",
"$.	c #FAF9FB",
"%.	c #FAFFFF",
"&.	c #F9FFFF",
"*.	c #F8FFFF",
"=.	c #F6FFFF",
"-.	c #C8DBF2",
";.	c #F3BE5B",
">.	c #F3B752",
",.	c #B77815",
"'.	c #838586",
").	c #865200",
"!.	c #865400",
"~.	c #CD8B27",
"{.	c #E4C88A",
"].	c #E6BEC7",
"^.	c #ED181E",
"/.	c #EF4248",
"(.	c #F68286",
"_.	c #EF3D44",
":.	c #FAC0C2",
"<.	c #F1575C",
"[.	c #EE3036",
"}.	c #F25F64",
"|.	c #F44D51",
"1.	c #C9D8F1",
"2.	c #DAD3C1",
"3.	c #F8B84B",
"4.	c #AF710E",
"5.	c #170B00",
"6.	c #838485",
"7.	c #855200",
"8.	c #815101",
"9.	c #C98723",
"0.	c #E6C281",
"a.	c #E5BEC9",
"b.	c #F03237",
"c.	c #F79DA0",
"d.	c #FEFFFF",
"e.	c #EF444A",
"f.	c #EC1922",
"g.	c #FDF2F2",
"h.	c #F3747A",
"i.	c #F8AEB1",
"j.	c #FCD3D4",
"k.	c #CF2C32",
"l.	c #92A7B9",
"m.	c #E1B264",
"n.	c #AF710B",
"o.	c #D2E7D2",
"p.	c #AA8036",
"q.	c #885300",
"r.	c #7D4E04",
"s.	c #C2821F",
"t.	c #E7C17A",
"u.	c #E4BFCA",
"v.	c #F03136",
"w.	c #F3787C",
"x.	c #FCEEEE",
"y.	c #F58B8F",
"z.	c #ED2E36",
"A.	c #FFFFFF",
"B.	c #F47278",
"C.	c #F9B6B8",
"D.	c #F13339",
"E.	c #F1FFFF",
"F.	c #E7BC75",
"G.	c #AD6E08",
"H.	c #2D972D",
"I.	c #8B5500",
"J.	c #5D3614",
"K.	c #7A4C05",
"L.	c #BC7D1B",
"M.	c #E6BB71",
"N.	c #E2BCC8",
"O.	c #F1383C",
"P.	c #F9B8BB",
"Q.	c #FCE5E7",
"R.	c #ED2129",
"S.	c #EE4046",
"T.	c #FBD0D2",
"U.	c #F37176",
"V.	c #F8B5B8",
"W.	c #EF3238",
"X.	c #EBFFFF",
"Y.	c #E6B66B",
"Z.	c #A36600",
"`.	c #399E37",
" +	c #003500",
".+	c #A97D32",
"++	c #915800",
"@+	c #543910",
"#+	c #613613",
"$+	c #794A07",
"%+	c #B67915",
"&+	c #E7B767",
"*+	c #D8D3E6",
"=+	c #F06367",
"-+	c #EE5054",
";+	c #F17378",
">+	c #F49B9E",
",+	c #F8D1D3",
"'+	c #F15E63",
")+	c #EE2C32",
"!+	c #EF4147",
"~+	c #FDFFFF",
"{+	c #F03539",
"]+	c #E6FFFF",
"^+	c #E5B162",
"/+	c #A06400",
"(+	c #3B9E38",
"_+	c #11A307",
":+	c #002D00",
"<+	c #CDB184",
"[+	c #895800",
"}+	c #008708",
"|+	c #354206",
"1+	c #643412",
"2+	c #744708",
"3+	c #B17311",
"4+	c #EFAD48",
"5+	c #C3E0F4",
"6+	c #D5F7FF",
"7+	c #D7F7FF",
"8+	c #D8F8FF",
"9+	c #D9F6FF",
"0+	c #DAF4FF",
"a+	c #DDFDFF",
"b+	c #DEFFFF",
"c+	c #E0FDFF",
"d+	c #E1F4FF",
"e+	c #E5FDFF",
"f+	c #C9EBFF",
"g+	c #E7AC52",
"h+	c #9C6200",
"i+	c #349135",
"j+	c #20B50E",
"k+	c #22AE14",
"l+	c #007200",
"m+	c #0C520D",
"n+	c #6B8C70",
"o+	c #B29566",
"p+	c #8D5300",
"q+	c #3AA937",
"r+	c #4DB644",
"s+	c #1E4E00",
"t+	c #603113",
"u+	c #72450A",
"v+	c #AB700D",
"w+	c #EDAA46",
"x+	c #F2B54A",
"y+	c #D79129",
"z+	c #EFB753",
"A+	c #EBB454",
"B+	c #EAB759",
"C+	c #E4B058",
"D+	c #DAA54F",
"E+	c #E5BA6A",
"F+	c #E3BA6D",
"G+	c #E3BD73",
"H+	c #D1A861",
"I+	c #E1BB70",
"J+	c #E9A33C",
"K+	c #945D00",
"L+	c #416641",
"M+	c #0F9E06",
"N+	c #2DBB1B",
"O+	c #3ABF28",
"P+	c #34B326",
"Q+	c #239F1A",
"R+	c #199114",
"S+	c #288E19",
"T+	c #59B84A",
"U+	c #8CD875",
"V+	c #70C861",
"W+	c #115F01",
"X+	c #6A3F08",
"Y+	c #A76A09",
"Z+	c #EBA845",
"`+	c #EEB44D",
" @	c #D9932B",
".@	c #EFB54E",
"+@	c #EEB24B",
"@@	c #EDB14C",
"#@	c #E8AC43",
"$@	c #E09B34",
"%@	c #EDB249",
"&@	c #ECB048",
"*@	c #EDB149",
"=@	c #DA932A",
"-@	c #EDAF47",
";@	c #E4A03C",
">@	c #8E5800",
",@	c #005500",
"'@	c #2BB91A",
")@	c #37BB25",
"!@	c #43BF31",
"~@	c #52C33E",
"{@	c #61CA4C",
"]@	c #6FCE5A",
"^@	c #79D064",
"/@	c #85D36F",
"(@	c #93D77B",
"_@	c #8ED77E",
":@	c #39740B",
"<@	c #A56406",
"[@	c #E9A542",
"}@	c #ECB24B",
"|@	c #DB952D",
"1@	c #EFB34B",
"2@	c #EDB14A",
"3@	c #ECB049",
"4@	c #E7AA43",
"5@	c #DE9C35",
"6@	c #EBAE49",
"7@	c #E9AE46",
"8@	c #EAAF49",
"9@	c #DA942E",
"0@	c #EAAC47",
"a@	c #E29B38",
"b@	c #8A5500",
"c@	c #007000",
"d@	c #37BD25",
"e@	c #44BF32",
"f@	c #50C33D",
"g@	c #5EC74A",
"h@	c #6ACB55",
"i@	c #78CF63",
"j@	c #85D16F",
"k@	c #8FD67A",
"l@	c #A0DD89",
"m@	c #9BBF69",
"n@	c #9C5D00",
"o@	c #E8A240",
"p@	c #E1A23E",
"q@	c #B7762D",
"r@	c #BE8241",
"s@	c #CB8C31",
"t@	c #EBB048",
"u@	c #E6A741",
"v@	c #DD9A33",
"w@	c #E9AD45",
"x@	c #E9AA45",
"y@	c #E9AC45",
"z@	c #D9932C",
"A@	c #E7A942",
"B@	c #DC9534",
"C@	c #835300",
"D@	c #005C00",
"E@	c #29AB1E",
"F@	c #52C63F",
"G@	c #62CB4D",
"H@	c #6ECD58",
"I@	c #79CF63",
"J@	c #98DB80",
"K@	c #71C663",
"L@	c #1F5A01",
"M@	c #9E5F01",
"N@	c #E7A03D",
"O@	c #AD6C29",
"P@	c #F3E3CE",
"Q@	c #F4E5CD",
"R@	c #BA8654",
"S@	c #BC8530",
"T@	c #E7A63F",
"U@	c #DC9831",
"V@	c #E7A742",
"W@	c #D8922B",
"X@	c #E5A63F",
"Y@	c #D68D2D",
"Z@	c #7A4D00",
"`@	c #004800",
" #	c #158611",
".#	c #2CA128",
"+#	c #68C455",
"@#	c #8FDA77",
"##	c #4DB243",
"$#	c #162500",
"%#	c #49240A",
"&#	c #9B6200",
"*#	c #D2892E",
"=#	c #B26A1A",
"-#	c #DCA457",
";#	c #DDA458",
">#	c #C6822F",
",#	c #8C5617",
"'#	c #DEA03C",
")#	c #DB9731",
"!#	c #E5A43F",
"~#	c #E4A43E",
"{#	c #D8932C",
"]#	c #E3A13C",
"^#	c #D38B29",
"/#	c #744900",
"(#	c #474247",
"_#	c #593E00",
":#	c #3BA935",
"<#	c #2E9D28",
"[#	c #48250E",
"}#	c #633A11",
"|#	c #965F00",
"1#	c #D2892D",
"2#	c #AC600F",
"3#	c #CE821A",
"4#	c #D0841A",
"5#	c #BE7015",
"6#	c #7E4D14",
"7#	c #D89A37",
"8#	c #DC972E",
"9#	c #E4A33D",
"0#	c #E2A33C",
"a#	c #E3A23B",
"b#	c #D7912B",
"c#	c #E19E38",
"d#	c #D08726",
"e#	c #6D4500",
"f#	c #895400",
"g#	c #007400",
"h#	c #512C0F",
"i#	c #613912",
"j#	c #5F3811",
"k#	c #925D00",
"l#	c #DC9331",
"m#	c #A45E15",
"n#	c #B86C13",
"o#	c #C07317",
"p#	c #99510C",
"q#	c #7F5A21",
"r#	c #E09D37",
"s#	c #E2A03A",
"t#	c #E0A039",
"u#	c #E09E37",
"v#	c #D8902A",
"w#	c #DE9A35",
"x#	c #C7801F",
"y#	c #664000",
"z#	c #694303",
"A#	c #543010",
"B#	c #603812",
"C#	c #5E3712",
"D#	c #905A00",
"E#	c #D68C2B",
"F#	c #D69636",
"G#	c #965D18",
"H#	c #7D4910",
"I#	c #7A551D",
"J#	c #CB9033",
"K#	c #DF9D35",
"L#	c #E09D36",
"M#	c #DE9B34",
"N#	c #D89129",
"O#	c #DD9732",
"P#	c #C47C1C",
"Q#	c #5B3800",
"R#	c #333539",
"S#	c #9B6912",
"T#	c #885401",
"U#	c #5D3714",
"V#	c #5F3813",
"W#	c #5D3712",
"X#	c #8E5A00",
"Y#	c #CF8626",
"Z#	c #DE9935",
"`#	c #DB9831",
" $	c #D1902D",
".$	c #DD9B36",
"+$	c #DD9933",
"@$	c #D79029",
"#$	c #DD9A34",
"$$	c #DC9A33",
"%$	c #DC9731",
"&$	c #DA932E",
"*$	c #C27A19",
"=$	c #553400",
"-$	c #303336",
";$	c #AC8138",
">$	c #5C3612",
",$	c #8D5900",
"'$	c #CA8221",
")$	c #DC9631",
"!$	c #DC9730",
"~$	c #D9922B",
"{$	c #DE9933",
"]$	c #DD9931",
"^$	c #DC9630",
"/$	c #D68E27",
"($	c #DC9530",
"_$	c #DA942D",
":$	c #D68E28",
"<$	c #D8902B",
"[$	c #BE7516",
"}$	c #4E3000",
"|$	c #313336",
"1$	c #AA7F35",
"2$	c #8A5400",
"3$	c #5C3613",
"4$	c #8B5700",
"5$	c #C67C1D",
"6$	c #DB952E",
"7$	c #D79027",
"8$	c #DA9630",
"9$	c #D58E27",
"0$	c #DA952E",
"a$	c #D88F2A",
"b$	c #D58E26",
"c$	c #D68D28",
"d$	c #B97311",
"e$	c #472C00",
"f$	c #B08946",
"g$	c #935B00",
"h$	c #895600",
"i$	c #C0781A",
"j$	c #D9902B",
"k$	c #D9942D",
"l$	c #D58C25",
"m$	c #D48C25",
"n$	c #D58D26",
"o$	c #D48A26",
"p$	c #B7710F",
"q$	c #3F2600",
"r$	c #2F3033",
"s$	c #CAAF81",
"t$	c #925900",
"u$	c #5D3612",
"v$	c #5F3913",
"w$	c #845403",
"x$	c #BC7415",
"y$	c #D8912B",
"z$	c #D79028",
"A$	c #D48B23",
"B$	c #D78F28",
"C$	c #D68F28",
"D$	c #D58C24",
"E$	c #D48B25",
"F$	c #D28623",
"G$	c #B56E0D",
"H$	c #331D00",
"I$	c #6A6C6E",
"J$	c #C9AE7E",
"K$	c #825204",
"L$	c #B77011",
"M$	c #D48925",
"N$	c #D78E29",
"O$	c #D58C27",
"P$	c #D48B26",
"Q$	c #D38A25",
"R$	c #D38924",
"S$	c #D28822",
"T$	c #D18521",
"U$	c #CD7D1D",
"V$	c #AE6909",
"W$	c #2D1900",
"X$	c #7C7D7F",
"Y$	c #C7AB7A",
"Z$	c #915900",
"`$	c #693F0E",
" %	c #633C10",
".%	c #643C10",
"+%	c #623A11",
"@%	c #815103",
"#%	c #B16B0D",
"$%	c #CF8120",
"%%	c #D18623",
"&%	c #D18422",
"*%	c #D08321",
"=%	c #CF8220",
"-%	c #CF801F",
";%	c #CE7F1E",
">%	c #CE7E1F",
",%	c #CE7C1E",
"'%	c #CD7B1C",
")%	c #C87218",
"!%	c #AA6506",
"~%	c #271600",
"{%	c #7B7C7E",
"]%	c #E7DAC6",
"^%	c #884D00",
"/%	c #8F5600",
"(%	c #905700",
"_%	c #905600",
":%	c #925C00",
"<%	c #AC650B",
"[%	c #CB761B",
"}%	c #CC7B1D",
"|%	c #CA781A",
"1%	c #C67618",
"2%	c #BF7315",
"3%	c #B96E11",
"4%	c #B36D0F",
"5%	c #AB680A",
"6%	c #A76506",
"7%	c #A26404",
"8%	c #9E6201",
"9%	c #9A6100",
"0%	c #A26700",
"a%	c #150B00",
"b%	c #797A7B",
"c%	c #EDE4D6",
"d%	c #E7DAC5",
"e%	c #EBE0D0",
"f%	c #A6792A",
"g%	c #9A5E00",
"h%	c #9D6101",
"i%	c #986100",
"j%	c #976000",
"k%	c #986200",
"l%	c #996100",
"m%	c #966000",
"n%	c #905C00",
"o%	c #714800",
"p%	c #5A3800",
"q%	c #492D00",
"r%	c #2C1900",
"s%	c #7E6230",
"t%	c #875500",
"u%	c #754B00",
"v%	c #5E3B00",
"w%	c #4B2E00",
"x%	c #352000",
"y%	c #1F1100",
"z%	c #14100B",
"A%	c #323437",
"B%	c #424345",
"C%	c #8D8D8D",
"D%	c #404245",
"E%	c #3A3C3E",
"F%	c #88898A",
"                          . + @ # $                             ",
"                          % & * = - ; ; > , ' ) ! ~ { ]         ",
"              ^ / ( ( ( _ : < [ } | 1 2 3 4 5 6 & 7 8 9 - 0 a   ",
"              / b c d d e f g h i j k l m n o p q r s t u v w x ",
"              ( y z A A B C D E F G H I J K L M N O P Q R S w T ",
"              U V W X X Y Z `  ...+.@.#.$.%.&.*.=.=.-.;.>.,.w '.",
"              U ).W X X W !.~.{.].^./.(._.:.<.[.}.|.1.2.3.4.5.6.",
"              U 7.W X X W 8.9.0.a.b.c.d.e.f.g.h.i.j.k.l.m.n.w   ",
"  o.          p.q.W X X W r.s.t.u.v.w.x.y.z.A.B.C.A.D.E.F.G.w   ",
"  H.w         p.I.J.X X A K.L.M.N.O.P.Q.R.S.T.U.V.A.W.X.Y.Z.w   ",
"  `. +        .+++@+#+X A $+%+&+*+=+-+;+>+,+'+)+!+~+{+]+^+/+w   ",
"  (+_+:+      <+[+}+|+1+A 2+3+4+5+6+7+8+9+0+a+b+c+d+e+f+g+h+w   ",
"  i+j+k+l+m+n+o+p+q+r+s+t+u+v+w+x+y+z+A+B+C+D+E+F+G+H+I+J+K+w   ",
"  L+M+N+O+P+Q+R+S+T+U+V+W+X+Y+Z+`+ @.@+@@@#@$@%@&@*@=@-@;@>@w   ",
"    ,@'@)@!@~@{@]@^@/@(@_@:@<@[@}@|@1@2@3@4@5@6@7@8@9@0@a@b@w   ",
"    w c@d@e@f@g@h@i@j@k@l@m@n@o@p@q@r@s@t@u@v@w@x@y@z@A@B@C@w   ",
"      w D@E@F@G@H@I@/@J@K@L@M@N@O@P@Q@R@S@T@U@A@V@A@W@X@Y@Z@w   ",
"        w w `@ #.#+#@###$#%#&#*#=#-#;#>#,#'#)#X@!#~#{#]#^#/#w   ",
"            (#w _#:#<#w [#}#|#1#2#3#4#5#6#7#8#9#0#a#b#c#d#e#w   ",
"                f#g#w h#i#j#k#l#m#n#o#p#q#r#z@s#t#u#v#w#x#y#w   ",
"                % z#A#B#X C#D#E#F#G#H#I#J#K#W@r#L#M#N#O#P#Q#R#  ",
"                S#T#U#X V#W#X#Y#Z#`# $.$L#+$@$#$$$%$@$&$*$=$-$  ",
"                ;$q.W X X >$,$'$)$!$~${$]$^$/$%$($_$:$<$[$}$|$  ",
"                1$2$W X X 3$4$5$&$6$7$%$8$_$9$0$_$a$b$c$d$e$|$  ",
"                f$g$>$X X W h$i$j$k$l$0$_$~$m$W@W@n$n$o$p$q$r$  ",
"                s$t$u$v$X W w$x$c$W@m$W@y$z$A$B$C$D$E$F$G$H$I$  ",
"                J$t$A V#V#3$K$L$M$N$l$c$O$P$Q$R$S$F$T$U$V$W$X$  ",
"                Y$Z$`$ %.%+%@%#%$%%%%%&%*%=%-%;%>%,%'%)%!%~%{%  ",
"                ]%^%/%(%(%_%:%<%[%}%|%1%2%3%4%5%6%7%8%9%0%a%b%  ",
"                  c%d%]%]%e%f%g%h%9%i%j%k%l%m%n%C@o%p%q%r%w     ",
"                            s%t%u%v%w%x%y%w w w w w z%A%B%C%    ",
"                              w w w D%E%F%                      "};
