/* XPM */
static char * btn_salir_xpm[] = {
"32 32 636 2",
"  	c None",
". 	c #AC8136",
"+ 	c #AF8842",
"@ 	c #93743E",
"# 	c #CFB78A",
"$ 	c #B3A183",
"% 	c #8D5100",
"& 	c #9A6001",
"* 	c #985E00",
"= 	c #8D5600",
"- 	c #8D5400",
"; 	c #8C5300",
"> 	c #8C5200",
", 	c #7E4900",
"' 	c #845B11",
") 	c #A87E35",
"! 	c #A3885A",
"~ 	c #C8AE7F",
"{ 	c #B4A68E",
"] 	c #E9DDCA",
"^ 	c #BC9B62",
"/ 	c #A97E33",
"( 	c #AC8036",
"_ 	c #AD833A",
": 	c #8D5800",
"< 	c #DF9633",
"[ 	c #F4AD49",
"} 	c #F5AD3F",
"| 	c #EDA73C",
"1 	c #E19D36",
"2 	c #D6942F",
"3 	c #CA8A28",
"4 	c #BD7E1E",
"5 	c #B37515",
"6 	c #A5690A",
"7 	c #925800",
"8 	c #8C5400",
"9 	c #8B5200",
"0 	c #905500",
"a 	c #140900",
"b 	c #824E00",
"c 	c #774705",
"d 	c #784805",
"e 	c #764705",
"f 	c #8E5900",
"g 	c #DB9734",
"h 	c #EEB85D",
"i 	c #C8D8DD",
"j 	c #D6D5C7",
"k 	c #D9CFB0",
"l 	c #DECAA1",
"m 	c #E3C48B",
"n 	c #E9BF7A",
"o 	c #EEBD68",
"p 	c #F3B655",
"q 	c #F7B44A",
"r 	c #F7AF40",
"s 	c #F0AC44",
"t 	c #E6A442",
"u 	c #D69332",
"v 	c #B06F0C",
"w 	c #301A00",
"x 	c #7D7E80",
"y 	c #764704",
"z 	c #5C3614",
"A 	c #5E3713",
"B 	c #5B3514",
"C 	c #8C5700",
"D 	c #D89630",
"E 	c #DDC799",
"F 	c #D8EEFF",
"G 	c #EBF9FF",
"H 	c #E7F6FF",
"I 	c #E3F3FF",
"J 	c #E0F1FF",
"K 	c #DBF0FF",
"L 	c #D7ECFF",
"M 	c #D3EAFF",
"N 	c #D0E9FF",
"O 	c #D0E5FB",
"P 	c #DDC08E",
"Q 	c #F5B84E",
"R 	c #F1B04C",
"S 	c #BB7916",
"T 	c #291600",
"U 	c #838486",
"V 	c #AB8036",
"W 	c #7D4B02",
"X 	c #5D3713",
"Y 	c #603913",
"Z 	c #5C3713",
"` 	c #895500",
" .	c #D4922C",
"..	c #E2C791",
"+.	c #E9E3EF",
"@.	c #F8B5B7",
"#.	c #F9CED1",
"$.	c #FAE3E5",
"%.	c #FAF9FB",
"&.	c #FAFFFF",
"*.	c #F9FFFF",
"=.	c #F8FFFF",
"-.	c #F6FFFF",
";.	c #C8DBF2",
">.	c #F3BE5B",
",.	c #F3B752",
"'.	c #B77815",
").	c #211200",
"!.	c #838586",
"~.	c #865200",
"{.	c #865400",
"].	c #CD8B27",
"^.	c #E4C88A",
"/.	c #E6BEC7",
"(.	c #ED181E",
"_.	c #EF4248",
":.	c #F68286",
"<.	c #EF3D44",
"[.	c #FAC0C2",
"}.	c #F1575C",
"|.	c #EE3036",
"1.	c #F25F64",
"2.	c #F44D51",
"3.	c #C9D8F1",
"4.	c #DAD3C1",
"5.	c #F8B84B",
"6.	c #AF710E",
"7.	c #170B00",
"8.	c #838485",
"9.	c #855200",
"0.	c #815101",
"a.	c #C98723",
"b.	c #E6C281",
"c.	c #E5BEC9",
"d.	c #F03237",
"e.	c #F79DA0",
"f.	c #FEFFFF",
"g.	c #EF444A",
"h.	c #EC1922",
"i.	c #FDF2F2",
"j.	c #F3747A",
"k.	c #F8AEB1",
"l.	c #FCD3D4",
"m.	c #CF2C32",
"n.	c #92A7B9",
"o.	c #E1B264",
"p.	c #AF710B",
"q.	c #0E0500",
"r.	c #D2E7D2",
"s.	c #AA8036",
"t.	c #885300",
"u.	c #7D4E04",
"v.	c #C2821F",
"w.	c #E7C17A",
"x.	c #E4BFCA",
"y.	c #F03136",
"z.	c #F3787C",
"A.	c #FCEEEE",
"B.	c #F58B8F",
"C.	c #ED2E36",
"D.	c #FFFFFF",
"E.	c #F47278",
"F.	c #F9B6B8",
"G.	c #F13339",
"H.	c #F1FFFF",
"I.	c #E7BC75",
"J.	c #AD6E08",
"K.	c #050000",
"L.	c #2D972D",
"M.	c #000000",
"N.	c #8B5500",
"O.	c #5D3614",
"P.	c #7A4C05",
"Q.	c #BC7D1B",
"R.	c #E6BB71",
"S.	c #E2BCC8",
"T.	c #F1383C",
"U.	c #F9B8BB",
"V.	c #FCE5E7",
"W.	c #ED2129",
"X.	c #EE4046",
"Y.	c #FBD0D2",
"Z.	c #F37176",
"`.	c #F8B5B8",
" +	c #EF3238",
".+	c #EBFFFF",
"++	c #E6B66B",
"@+	c #A36600",
"#+	c #399E37",
"$+	c #003500",
"%+	c #A97D32",
"&+	c #915800",
"*+	c #543910",
"=+	c #613613",
"-+	c #794A07",
";+	c #B67915",
">+	c #E7B767",
",+	c #D8D3E6",
"'+	c #F06367",
")+	c #EE5054",
"!+	c #F17378",
"~+	c #F49B9E",
"{+	c #F8D1D3",
"]+	c #F15E63",
"^+	c #EE2C32",
"/+	c #EF4147",
"(+	c #FDFFFF",
"_+	c #F03539",
":+	c #E6FFFF",
"<+	c #E5B162",
"[+	c #A06400",
"}+	c #3B9E38",
"|+	c #11A307",
"1+	c #002D00",
"2+	c #CDB184",
"3+	c #895800",
"4+	c #008708",
"5+	c #354206",
"6+	c #643412",
"7+	c #744708",
"8+	c #B17311",
"9+	c #EFAD48",
"0+	c #C3E0F4",
"a+	c #D5F7FF",
"b+	c #D7F7FF",
"c+	c #D8F8FF",
"d+	c #D9F6FF",
"e+	c #DAF4FF",
"f+	c #DDFDFF",
"g+	c #DEFFFF",
"h+	c #E0FDFF",
"i+	c #E1F4FF",
"j+	c #E5FDFF",
"k+	c #C9EBFF",
"l+	c #E7AC52",
"m+	c #9C6200",
"n+	c #349135",
"o+	c #20B50E",
"p+	c #22AE14",
"q+	c #007200",
"r+	c #0C520D",
"s+	c #6B8C70",
"t+	c #B29566",
"u+	c #8D5300",
"v+	c #3AA937",
"w+	c #4DB644",
"x+	c #1E4E00",
"y+	c #603113",
"z+	c #72450A",
"A+	c #AB700D",
"B+	c #EDAA46",
"C+	c #F2B54A",
"D+	c #D79129",
"E+	c #EFB753",
"F+	c #EBB454",
"G+	c #EAB759",
"H+	c #E4B058",
"I+	c #DAA54F",
"J+	c #E5BA6A",
"K+	c #E3BA6D",
"L+	c #E3BD73",
"M+	c #D1A861",
"N+	c #E1BB70",
"O+	c #E9A33C",
"P+	c #945D00",
"Q+	c #416641",
"R+	c #0F9E06",
"S+	c #2DBB1B",
"T+	c #3ABF28",
"U+	c #34B326",
"V+	c #239F1A",
"W+	c #199114",
"X+	c #288E19",
"Y+	c #59B84A",
"Z+	c #8CD875",
"`+	c #70C861",
" @	c #115F01",
".@	c #6A3F08",
"+@	c #A76A09",
"@@	c #EBA845",
"#@	c #EEB44D",
"$@	c #D9932B",
"%@	c #EFB54E",
"&@	c #EEB24B",
"*@	c #EDB14C",
"=@	c #E8AC43",
"-@	c #E09B34",
";@	c #EDB249",
">@	c #ECB048",
",@	c #EDB149",
"'@	c #DA932A",
")@	c #EDAF47",
"!@	c #E4A03C",
"~@	c #8E5800",
"{@	c #005500",
"]@	c #2BB91A",
"^@	c #37BB25",
"/@	c #43BF31",
"(@	c #52C33E",
"_@	c #61CA4C",
":@	c #6FCE5A",
"<@	c #79D064",
"[@	c #85D36F",
"}@	c #93D77B",
"|@	c #8ED77E",
"1@	c #39740B",
"2@	c #A56406",
"3@	c #E9A542",
"4@	c #ECB24B",
"5@	c #DB952D",
"6@	c #EFB34B",
"7@	c #EDB14A",
"8@	c #ECB049",
"9@	c #E7AA43",
"0@	c #DE9C35",
"a@	c #EBAE49",
"b@	c #E9AE46",
"c@	c #EAAF49",
"d@	c #DA942E",
"e@	c #EAAC47",
"f@	c #E29B38",
"g@	c #8A5500",
"h@	c #2F342F",
"i@	c #007000",
"j@	c #37BD25",
"k@	c #44BF32",
"l@	c #50C33D",
"m@	c #5EC74A",
"n@	c #6ACB55",
"o@	c #78CF63",
"p@	c #85D16F",
"q@	c #8FD67A",
"r@	c #A0DD89",
"s@	c #9BBF69",
"t@	c #9C5D00",
"u@	c #E8A240",
"v@	c #E1A23E",
"w@	c #B7762D",
"x@	c #BE8241",
"y@	c #CB8C31",
"z@	c #EBB048",
"A@	c #E6A741",
"B@	c #DD9A33",
"C@	c #E9AD45",
"D@	c #E9AA45",
"E@	c #E9AC45",
"F@	c #D9932C",
"G@	c #E7A942",
"H@	c #DC9534",
"I@	c #835300",
"J@	c #1C231C",
"K@	c #005C00",
"L@	c #29AB1E",
"M@	c #52C63F",
"N@	c #62CB4D",
"O@	c #6ECD58",
"P@	c #79CF63",
"Q@	c #98DB80",
"R@	c #71C663",
"S@	c #1F5A01",
"T@	c #9E5F01",
"U@	c #E7A03D",
"V@	c #AD6C29",
"W@	c #F3E3CE",
"X@	c #F4E5CD",
"Y@	c #BA8654",
"Z@	c #BC8530",
"`@	c #E7A63F",
" #	c #DC9831",
".#	c #E7A742",
"+#	c #D8922B",
"@#	c #E5A63F",
"##	c #D68D2D",
"$#	c #7A4D00",
"%#	c #2F282F",
"&#	c #000C00",
"*#	c #004800",
"=#	c #158611",
"-#	c #2CA128",
";#	c #68C455",
">#	c #8FDA77",
",#	c #4DB243",
"'#	c #0A3D00",
")#	c #49240A",
"!#	c #9B6200",
"~#	c #D2892E",
"{#	c #B26A1A",
"]#	c #DCA457",
"^#	c #DDA458",
"/#	c #C6822F",
"(#	c #8C5617",
"_#	c #DEA03C",
":#	c #DB9731",
"<#	c #E5A43F",
"[#	c #E4A43E",
"}#	c #D8932C",
"|#	c #E3A13C",
"1#	c #D38B29",
"2#	c #744900",
"3#	c #474247",
"4#	c #593E00",
"5#	c #3BA935",
"6#	c #2E9D28",
"7#	c #162C00",
"8#	c #48250E",
"9#	c #633A11",
"0#	c #965F00",
"a#	c #D2892D",
"b#	c #AC600F",
"c#	c #CE821A",
"d#	c #D0841A",
"e#	c #BE7015",
"f#	c #7E4D14",
"g#	c #D89A37",
"h#	c #DC972E",
"i#	c #E4A33D",
"j#	c #E2A33C",
"k#	c #E3A23B",
"l#	c #D7912B",
"m#	c #E19E38",
"n#	c #D08726",
"o#	c #6D4500",
"p#	c #895400",
"q#	c #007400",
"r#	c #252204",
"s#	c #512C0F",
"t#	c #613912",
"u#	c #5F3811",
"v#	c #925D00",
"w#	c #DC9331",
"x#	c #A45E15",
"y#	c #B86C13",
"z#	c #C07317",
"A#	c #99510C",
"B#	c #7F5A21",
"C#	c #E09D37",
"D#	c #E2A03A",
"E#	c #E0A039",
"F#	c #E09E37",
"G#	c #D8902A",
"H#	c #DE9A35",
"I#	c #C7801F",
"J#	c #664000",
"K#	c #694303",
"L#	c #543010",
"M#	c #603812",
"N#	c #5E3712",
"O#	c #905A00",
"P#	c #D68C2B",
"Q#	c #D69636",
"R#	c #965D18",
"S#	c #7D4910",
"T#	c #7A551D",
"U#	c #CB9033",
"V#	c #DF9D35",
"W#	c #E09D36",
"X#	c #DE9B34",
"Y#	c #D89129",
"Z#	c #DD9732",
"`#	c #C47C1C",
" $	c #5B3800",
".$	c #333539",
"+$	c #9B6912",
"@$	c #885401",
"#$	c #5D3714",
"$$	c #5F3813",
"%$	c #5D3712",
"&$	c #8E5A00",
"*$	c #CF8626",
"=$	c #DE9935",
"-$	c #DB9831",
";$	c #D1902D",
">$	c #DD9B36",
",$	c #DD9933",
"'$	c #D79029",
")$	c #DD9A34",
"!$	c #DC9A33",
"~$	c #DC9731",
"{$	c #DA932E",
"]$	c #C27A19",
"^$	c #553400",
"/$	c #303336",
"($	c #AC8138",
"_$	c #5C3612",
":$	c #8D5900",
"<$	c #CA8221",
"[$	c #DC9631",
"}$	c #DC9730",
"|$	c #D9922B",
"1$	c #DE9933",
"2$	c #DD9931",
"3$	c #DC9630",
"4$	c #D68E27",
"5$	c #DC9530",
"6$	c #DA942D",
"7$	c #D68E28",
"8$	c #D8902B",
"9$	c #BE7516",
"0$	c #4E3000",
"a$	c #313336",
"b$	c #AA7F35",
"c$	c #8A5400",
"d$	c #5C3613",
"e$	c #8B5700",
"f$	c #C67C1D",
"g$	c #DB952E",
"h$	c #D79027",
"i$	c #DA9630",
"j$	c #D58E27",
"k$	c #DA952E",
"l$	c #D88F2A",
"m$	c #D58E26",
"n$	c #D68D28",
"o$	c #B97311",
"p$	c #472C00",
"q$	c #B08946",
"r$	c #935B00",
"s$	c #895600",
"t$	c #C0781A",
"u$	c #D9902B",
"v$	c #D9942D",
"w$	c #D58C25",
"x$	c #D48C25",
"y$	c #D58D26",
"z$	c #D48A26",
"A$	c #B7710F",
"B$	c #3F2600",
"C$	c #2F3033",
"D$	c #CAAF81",
"E$	c #925900",
"F$	c #5D3612",
"G$	c #5F3913",
"H$	c #845403",
"I$	c #BC7415",
"J$	c #D8912B",
"K$	c #D79028",
"L$	c #D48B23",
"M$	c #D78F28",
"N$	c #D68F28",
"O$	c #D58C24",
"P$	c #D48B25",
"Q$	c #D28623",
"R$	c #B56E0D",
"S$	c #331D00",
"T$	c #6A6C6E",
"U$	c #C9AE7E",
"V$	c #825204",
"W$	c #B77011",
"X$	c #D48925",
"Y$	c #D78E29",
"Z$	c #D58C27",
"`$	c #D48B26",
" %	c #D38A25",
".%	c #D38924",
"+%	c #D28822",
"@%	c #D18521",
"#%	c #CD7D1D",
"$%	c #AE6909",
"%%	c #2D1900",
"&%	c #7C7D7F",
"*%	c #C7AB7A",
"=%	c #915900",
"-%	c #693F0E",
";%	c #633C10",
">%	c #643C10",
",%	c #623A11",
"'%	c #815103",
")%	c #B16B0D",
"!%	c #CF8120",
"~%	c #D18623",
"{%	c #D18422",
"]%	c #D08321",
"^%	c #CF8220",
"/%	c #CF801F",
"(%	c #CE7F1E",
"_%	c #CE7E1F",
":%	c #CE7C1E",
"<%	c #CD7B1C",
"[%	c #C87218",
"}%	c #AA6506",
"|%	c #271600",
"1%	c #7B7C7E",
"2%	c #E7DAC6",
"3%	c #884D00",
"4%	c #8F5600",
"5%	c #905700",
"6%	c #905600",
"7%	c #925C00",
"8%	c #AC650B",
"9%	c #CB761B",
"0%	c #CC7B1D",
"a%	c #CA781A",
"b%	c #C67618",
"c%	c #BF7315",
"d%	c #B96E11",
"e%	c #B36D0F",
"f%	c #AB680A",
"g%	c #A76506",
"h%	c #A26404",
"i%	c #9E6201",
"j%	c #9A6100",
"k%	c #A26700",
"l%	c #150B00",
"m%	c #797A7B",
"n%	c #EDE4D6",
"o%	c #E7DAC5",
"p%	c #EBE0D0",
"q%	c #A6792A",
"r%	c #9A5E00",
"s%	c #9D6101",
"t%	c #986100",
"u%	c #976000",
"v%	c #986200",
"w%	c #996100",
"x%	c #966000",
"y%	c #905C00",
"z%	c #714800",
"A%	c #5A3800",
"B%	c #492D00",
"C%	c #2C1900",
"D%	c #7E6230",
"E%	c #875500",
"F%	c #754B00",
"G%	c #5E3B00",
"H%	c #4B2E00",
"I%	c #352000",
"J%	c #1F1100",
"K%	c #0D0600",
"L%	c #0D0F12",
"M%	c #323437",
"N%	c #424345",
"O%	c #8D8D8D",
"P%	c #080A0D",
"Q%	c #404245",
"R%	c #3A3C3E",
"S%	c #88898A",
"                          . + @ # $                             ",
"                          % & * = - ; ; > , ' ) ! ~ { ]         ",
"              ^ / ( ( ( _ : < [ } | 1 2 3 4 5 6 & 7 8 9 - 0 a   ",
"              / b c d d e f g h i j k l m n o p q r s t u v w x ",
"              ( y z A A B C D E F G H I J K L M N O P Q R S T U ",
"              V W X Y Y Z `  ...+.@.#.$.%.&.*.=.-.-.;.>.,.'.).!.",
"              V ~.X Y Y X {.].^./.(._.:.<.[.}.|.1.2.3.4.5.6.7.8.",
"              V 9.X Y Y X 0.a.b.c.d.e.f.g.h.i.j.k.l.m.n.o.p.q.  ",
"  r.          s.t.X Y Y X u.v.w.x.y.z.A.B.C.D.E.F.D.G.H.I.J.K.  ",
"  L.M.        s.N.O.Y Y A P.Q.R.S.T.U.V.W.X.Y.Z.`.D. +.+++@+M.  ",
"  #+$+        %+&+*+=+Y A -+;+>+,+'+)+!+~+{+]+^+/+(+_+:+<+[+M.  ",
"  }+|+1+      2+3+4+5+6+A 7+8+9+0+a+b+c+d+e+f+g+h+i+j+k+l+m+M.  ",
"  n+o+p+q+r+s+t+u+v+w+x+y+z+A+B+C+D+E+F+G+H+I+J+K+L+M+N+O+P+M.  ",
"  Q+R+S+T+U+V+W+X+Y+Z+`+ @.@+@@@#@$@%@&@*@=@-@;@>@,@'@)@!@~@M.  ",
"    {@]@^@/@(@_@:@<@[@}@|@1@2@3@4@5@6@7@8@9@0@a@b@c@d@e@f@g@M.  ",
"    h@i@j@k@l@m@n@o@p@q@r@s@t@u@v@w@x@y@z@A@B@C@D@E@F@G@H@I@M.  ",
"      J@K@L@M@N@O@P@[@Q@R@S@T@U@V@W@X@Y@Z@`@ #G@.#G@+#@###$#M.  ",
"        %#&#*#=#-#;#>#,#'#)#!#~#{#]#^#/#(#_#:#@#<#[#}#|#1#2#M.  ",
"            3#M.4#5#6#7#8#9#0#a#b#c#d#e#f#g#h#i#j#k#l#m#n#o#M.  ",
"                p#q#r#s#t#u#v#w#x#y#z#A#B#C#F@D#E#F#G#H#I#J#M.  ",
"                % K#L#M#Y N#O#P#Q#R#S#T#U#V#+#C#W#X#Y#Z#`# $.$  ",
"                +$@$#$Y $$%$&$*$=$-$;$>$W#,$'$)$!$~$'${$]$^$/$  ",
"                ($t.X Y Y _$:$<$[$}$|$1$2$3$4$~$5$6$7$8$9$0$a$  ",
"                b$c$X Y Y d$e$f${$g$h$~$i$6$j$k$6$l$m$n$o$p$a$  ",
"                q$r$_$Y Y X s$t$u$v$w$k$6$|$x$+#+#y$y$z$A$B$C$  ",
"                D$E$F$G$Y X H$I$n$+#x$+#J$K$L$M$N$O$P$Q$R$S$T$  ",
"                U$E$A $$$$d$V$W$X$Y$w$n$Z$`$ %.%+%Q$@%#%$%%%&%  ",
"                *%=%-%;%>%,%'%)%!%~%~%{%]%^%/%(%_%:%<%[%}%|%1%  ",
"                2%3%4%5%5%6%7%8%9%0%a%b%c%d%e%f%g%h%i%j%k%l%m%  ",
"                  n%o%2%2%p%q%r%s%j%t%u%v%w%x%y%I@z%A%B%C%M.    ",
"                            D%E%F%G%H%I%J%K%M.M.M.M.L%M%N%O%    ",
"                              M.M.P%Q%R%S%                      "};
