/* XPM */
static char *btn_home[] = {
/* columns rows colors chars-per-pixel */
"32 32 65 1",
"  c #C8B4AB",
". c #FE6A0D",
"X c #F38532",
"o c #F25701",
"O c #9C5224",
"+ c #BCB8B9",
"@ c #FAA774",
"# c #EFC8AA",
"$ c #C1C0C0",
"% c #FA7827",
"& c #FEFEFE",
"* c #E2E3E4",
"= c #DBDADB",
"- c #D1D2D2",
"; c #E9DBD4",
": c #DC4602",
"> c #BA8F76",
", c #C82207",
"< c #BA7446",
"1 c #D38F6E",
"2 c #FD9F64",
"3 c #969393",
"4 c #CC6D2B",
"5 c #AE9793",
"6 c #ECECEC",
"7 c #FD9858",
"8 c #F2F3F3",
"9 c #CDAC9B",
"0 c #FDB586",
"q c #CC635A",
"w c #C27676",
"e c #EFF4F5",
"r c #C6885B",
"t c #B27D5E",
"y c #53454C",
"u c #E67B43",
"i c #BF5654",
"p c #FD8D3D",
"a c #FE914B",
"s c #C99285",
"d c #BDA499",
"f c #D6C8C3",
"g c #C44F4A",
"h c #F3E5D7",
"j c #B6362D",
"k c #867278",
"l c #F6FDFE",
"z c #D6D7D7",
"x c #E9EAEB",
"c c #EDEFF0",
"v c #E6E6E6",
"b c #DFE0E0",
"n c #E3E8EA",
"m c #CDCDCD",
"M c #E1D2C9",
"N c #A49FA0",
"B c #F6F1EE",
"V c gray97",
"C c #FEF8F2",
"Z c #A06A55",
"A c #D0BEBA",
"S c #C64033",
"D c #AFAFAF",
"F c gray100",
"G c None",
/* pixels */
"GGGGGGGGGGGGGGG@ GGGGGGGGGGGGGGG",
"GGGGGGGGGGGGGG@%:dGGGGGGGGGGGGGG",
"GGGGGGGGGGGGG1@u::>GGGGGGGGGGGGG",
"GGGGGGGGGGGG7@@%:::tGGGGGGGGGGGG",
"GGGGGGGGGG#u22@%::::<GGGGGGGGGGG",
"GGGGGGGGG0a722@%::::::fGGGGGGGGG",
"GGGGGGGGsX7a7724::::::: GGGGGGGG",
"GGGGGGG2.aaa772%::::::::dGGGGGGG",
"GGGGGG4.oXpaa77%::::::::o>GGGGGG",
"GGGGG%.o..paaa%,,oo:oo:o:o<GGGGG",
"GGGGr.....%Xao,si,ooooooooodGGGG",
"GGGGX......%:j Ves,o.oo.oo.<GGGG",
"GGGG%X%X%p%Sg;&&&l jo......4GGGG",
"GGG9ppppaujw6&&&&&lfgS%%%%%. GGG",
"GGG177a2uSf&Chh;;MBl*wSXp%pp>GGG",
"GGG@220qi;;9Z5A ;9r#vc9Su2aarGGG",
"GG 00@gwc&rOOk35$9O<Aec$iu022GGG",
"GG9#2g9V&&s<Zyykk3<rAcxnmwg@0dGG",
"GG#1q=&&&&9<rr><r<r1$6vv*-5g0dGG",
"GGqiD&&VVV;9 t>>tZ  Mv***bbDj1GG",
"G+kDD&VVV8eee=nnn=nvb*bbb=bDNk$G",
"GGGGDV8888ccv=MmfAf*bbb====DGGGG",
"GGGGDV88cc6edOOOOOZbb===zz=DGGGG",
"GGGGD8cc66xedOO444Zb==zzz-=DGGGG",
"GGGGD866xxvcd4O444tz=zz---=DGGGG",
"GGGGDcxxvv*xdO44u4tzz---mm=DGGGG",
"GGGGD6vvv*bn944uX4t----mmm=DGGGG",
"GGGGD6v*bbb*9XXXXX>m-mmmmmzDGGGG",
"GGGGDcvv**bvDXXXpp1m-m--m-zDGGGG",
"GGGGD=mmmmmmdppppp>+$$$$$$+DGGGG",
"GGGGG33333333fD f N33333333GGGGG",
"GGGGGGGGGGGGD333NNNGGGGGGGGGGGGG"
};
