/* XPM */
static char *btn_transfer[] = {
/* columns rows colors chars-per-pixel */
"32 32 65 1",
"  c #D0FBCF",
". c #66F071",
"X c #ACEF6A",
"o c #91D393",
"O c #95A8A3",
"+ c #ADCAC6",
"@ c #D4F6AF",
"# c #348A4E",
"$ c #C4F590",
"% c #EAFDCB",
"& c #89BB9A",
"* c #8DE1A8",
"= c #EBFAE6",
"- c #94D4BA",
"; c #3D988A",
": c #759085",
"> c #54946F",
", c #9BE373",
"< c #52B288",
"1 c #5C7873",
"2 c #76E28E",
"3 c #A5DBA0",
"4 c #B3E2CB",
"5 c #A2B9B4",
"6 c #A2E489",
"7 c #348981",
"8 c #4DA96B",
"9 c #6CB5A5",
"0 c #6AB773",
"q c #589593",
"w c #076037",
"e c #86F68D",
"r c #337071",
"t c #B8F9BA",
"y c #7EC684",
"u c #327150",
"i c #879B96",
"p c #A1DC97",
"a c #ACF7B2",
"s c #9EDDBF",
"d c #C2E3C4",
"f c #A6F7AB",
"g c #619081",
"h c #79B48A",
"j c #4FA9A0",
"k c #79C1AC",
"l c #176871",
"z c #55AE56",
"x c #197445",
"c c #3F975A",
"v c #BCD2CC",
"b c #085561",
"n c #63B05F",
"m c #8CBBB7",
"M c #DCFDB3",
"N c #98DA78",
"B c #A0EC62",
"V c #B6F864",
"C c #06535F",
"Z c #B0E1AD",
"A c #87CBB0",
"S c #9ACEA3",
"D c gray100",
"F c gray100",
"G c None",
/* pixels */
"GGGGGGGGGGGGGGGGGGGGGGGGGGGGGGGG",
"GGGGGGGGGGGGGGGGGGGGGGGGGGGGGGGG",
"GGGGGGGGGGGGGGGGGGGGGGGGGGGGGGGG",
"GGGGGGGGGGGGGxwwwwwwwwwwGGGGGGGG",
"GGGGGGGGGGGGGc=3opppp3Z8GGGGGGGG",
"GGGGGGGGGGGGG#D=%%$XB6cGGGGGGGGG",
"GGGGGGGGGGGGG#D%M$BX6cvGGGGGGGGG",
"GGGGGGGG+vvvv#D%M$XX81vGGGGGGGGG",
"GGGGGGmmvdt55#D%M$XXyc:GGGGGGGGG",
"GGGGG9m-4tOmG#D%M$VBo0u1GGGGGGGG",
"GGGGq9s4fq5GG#D%%;@XBo0uuGGGGGGG",
"GGG5qAse2iGGGcD=8Ox3Vooy#1GGGGGG",
"GGGg;*2t<OGGGcVcGG:xM,ooyuiGGGGG",
"GGG7<*.=;OGGG88GGGG1z%,oo0u5GGGG",
"GGG;<2.=9gGGGGGGGGGGu0@,op#>GGGG",
"GGG7<22fdlGGGGGGGGGGGxd@,,n#GGGG",
"GGGq7*A2t9rGGGGGGGGGG1h%B,y#GGGG",
"GGG+rk--2 j1GGGGjjGGGi>=BpncGGGG",
"GGGGirk--2tl:GG;.;GGGOz@Xpc>GGGG",
"GGGGG17A--.s7Oj=D;GGG:N$3o>5GGGG",
"GGGGGGr79-..o7  D7GGi>$ZZh0GGGGG",
"GGGGGGG1r9-.eea D75:g$4S&hGGGGGG",
"GGGGGGGG1;-.eea D7gg@dS&&GGGGGGG",
"GGGGGGGGG1j..et D7&&&&&vGGGGGGGG",
"GGGGGGGGG;*..et D75O5vGGGGGGGGGG",
"GGGGGGGG;*..e  =D7GGGGGGGGGGGGGG",
"GGGGGGGj4sssssss=;GGGGGGGGGGGGGG",
"GGGGGGGbbbbbbCbCblGGGGGGGGGGGGGG",
"GGGGGGGGGGGGGGGGGGGGGGGGGGGGGGGG",
"GGGGGGGGGGGGGGGGGGGGGGGGGGGGGGGG",
"GGGGGGGGGGGGGGGGGGGGGGGGGGGGGGGG",
"GGGGGGGGGGGGGGGGGGGGGGGGGGGGGGGG"
};
