/* XPM */
static char *btn_preferences[] = {
/* columns rows colors chars-per-pixel */
"32 32 65 1",
"  c #B27220",
". c #0196FE",
"X c #58D2FB",
"o c #FEAA01",
"O c #FDCA00",
"+ c #D9AE6C",
"@ c #F0D998",
"# c #116FDC",
"$ c #FEE800",
"% c #609990",
"& c #FED800",
"* c #03D5FE",
"= c #FE9E00",
"- c #F3C95A",
"; c #34AFF9",
": c #B5925D",
"> c #FFBA00",
", c #FFFB00",
"< c #848A94",
"1 c #48E0B7",
"2 c #5779A9",
"3 c #4BB4F1",
"4 c #AAABAC",
"5 c #96B5D5",
"6 c #01B8FD",
"7 c #CF800A",
"8 c #2791E9",
"9 c #4E87D6",
"0 c #D3BC94",
"q c #A2D7EE",
"w c #62A6CD",
"e c #F4B62D",
"r c #8091AB",
"t c #01A4FF",
"y c #FBC239",
"u c #85C4A8",
"i c #CB8E39",
"p c #AFA392",
"a c #15BCF6",
"s c #E28500",
"d c #19A9F7",
"f c #FCA825",
"g c #449DE1",
"h c #E89600",
"j c #3380D8",
"k c #E89724",
"l c #7A99C3",
"z c #A49683",
"x c #0BA2ED",
"c c #DBA200",
"v c #7BB0DD",
"b c #877762",
"n c #27A0E8",
"m c #E1A300",
"M c #F2C713",
"N c #F4D815",
"B c #D1A242",
"V c #FDBE1E",
"C c #9EA0A1",
"Z c #2766CA",
"A c #BAF048",
"S c #F69F17",
"D c #FF9500",
"F c gray100",
"G c None",
/* pixels */
"GGGGGGGGGGGGGGGGGGGGGGGGGGGGGGGG",
"GGGGGGGGGGGGGGGGGGGGGGGGGGGGGGGG",
"GGGGG-O>-G@y@GGGGGGGGGGGGGGGGGGG",
"GGGGGy,,Oef$>+GGGGGGGGGGGGGGGGGG",
"GGyOy>$,,,$,,S0GGGGGGGGGGGGGGGGG",
"G@&,$$,&o=Do>&oS=0GGGGGGGGGGGGGG",
"Gy=$$$>DDDDoo=O$$=0GGGGGGGGGGGGG",
"GyD>$&DDDD=o>>>>$spGGGGGGGGGGGGG",
"@Vo&&>D:zp:B>OO&OoiGGGGGGGGGGGGG",
"VOO&&>:CGGGG0M&$&&m7+GGGGGGGGGGG",
"oO&OOo:GGGGGGGN$$$OO7wwqGGGGGGGG",
"o>>OO>kGGGGGGGu$,,>Oh%*gGGGGGGGG",
"o===>>=+GGGGGX*A,,>o7naagvvGGGGG",
"oo=o>>>=+GGGGga1,,>hb#jgnaa9GGGG",
"G0Boooooo-GGG8.1,&oo7bjjg;a9GGGG",
"GG0=ooooooM-@uuA&oo=o7gggg;8rGGG",
"GG-o=======>>O>o===O=7<w333a89GG",
"GGf&>D>&>DDDDDDDDDO&m CGvXX36t9G",
"GGfO$&>$$ODDDDDDDDsc <GGGXXX6xZG",
"GGGkOhih&$DDDO$&=Ds <GGGGqXX6Z<G",
"GGGGkzCp7ODDDM$,ODs CGGGGGX;t#2G",
"GGGGGGGG+N&Os  $,O d35GGGqXttt#l",
"GGGGGGGG+&,$ <%7c x..d;3;;.ttt#r",
"GGGGGGGG@ 77bld%2t6.........66Zr",
"GGGGGGGGGGGz45n*6d6*t.......##24",
"GGGGGGGGGGGGGG5nj2ja6..6**..#2pG",
"GGGGGGGGGGGGGGGvC44j6...x**.Z<GG",
"GGGGGGGGGGGGGGGGGGG9**x22x*#2CGG",
"GGGGGGGGGGGGGGGGGGG9xaZ<4ZZ2CGGG",
"GGGGGGGGGGGGGGGGGGGG52rGGGGGGGGG",
"GGGGGGGGGGGGGGGGGGGGGGGGGGGGGGGG",
"GGGGGGGGGGGGGGGGGGGGGGGGGGGGGGGG"
};
