/* XPM */
static char *btn_stopcon[] = {
/* columns rows colors chars-per-pixel */
"32 32 72 1",
"  c black",
". c #6C3100",
"X c #773500",
"o c #6E5900",
"O c #755F00",
"+ c #7C6400",
"@ c #8E4900",
"# c #876D00",
"$ c #887306",
"% c #917500",
"& c #977B00",
"* c #9A7D00",
"= c #927C12",
"- c #AB4F00",
"; c red",
": c #C05A00",
"> c #F76760",
", c #A58500",
"< c #B18E00",
"1 c #B59200",
"2 c #B49B00",
"3 c #BD9700",
"4 c #BB9B00",
"5 c #BB9E12",
"6 c #CC9C00",
"7 c #C3A000",
"8 c #C6AC00",
"9 c #C6AE0C",
"0 c #C9A800",
"q c #D0A300",
"w c #D2A600",
"e c #D5AA00",
"r c #D8AD00",
"t c #DDAF1A",
"y c #D5B100",
"u c #D3B800",
"i c #DBB300",
"p c #DDB800",
"a c #E1BC00",
"s c #E5BC20",
"d c #DFC71D",
"f c #EAC600",
"g c #EFCB00",
"h c #E8CE18",
"j c #EFD30D",
"k c #F5D500",
"l c #F7D906",
"z c #FBDD00",
"x c #F4D939",
"c c #FCE220",
"v c #FCE430",
"b c #FDE748",
"n c #FDE954",
"m c #F7E465",
"M c #FCE965",
"N c #FCEA6C",
"B c #FDED72",
"V c #FEEE7A",
"C c #FDEE82",
"Z c #FDEF8B",
"A c #FDF08F",
"S c #FEF192",
"D c #FDF199",
"F c #FEF3A3",
"G c #FDF4AE",
"H c #FEF5B4",
"J c #FEF6BE",
"K c #FDF6C5",
"L c #FFFCE4",
"P c #FFFEF4",
"I c gray100",
"U c None",
/* pixels */
"UUUUUUUUUUUUUUUUUUU%$##+UUUUUUUU",
"UUUUUUUUUUUUUU***&&3q66,+UUUUUUU",
"UUUUUUUUU,,,,,3qwwwwww66,OUUUUUU",
"UUUUUUUU,3eeeewwwwwwwww66,oUUUUU",
"UUUUUUUU,ieeeeewwwwwwwww66,oUUUU",
"UUUUUUUU,aieeeeewwwwrigzzz2oUUUU",
"UUUUUUU,7aaieeeiaxCGGSSMz2oUUUUU",
"UUUUUUU,eaaagmJLLKGGACMz2oUUUUUU",
"UUUUUUU,iaaalPPKHDCCCMz2oUUUUUUU",
"UUUUUU,7paaaNPHFCCCCMz2oUUUUUUUU",
"UUUUUU,eppagJHSCCCBMv8oUUUUUUUUU",
"UUUUUU,ippplJSCCCBMbuoUUUUUUUUUU",
"UUUUU,7iippMHCCCBMnho%oUUUUUUUUU",
"UUUUU,eiipgDSCVNMMxo%,1oUUUUUUUU",
"UUUU,4eyiikHSBMMMM=oooooUUUUUUUU",
"UUUU,7eeyicZBMMMbbbvd2oUUUUUUUUU",
"UUUUU,7eefMBMMbbbbbj2o%oUUUUUUUU",
"UUUUUU,7ekMMbbbbbbz9o%,1oUUUUUUU",
"UUUUUUU,7zbbbbbbbvd$ooooooUUUUUU",
"UUUUUUUU,,,,,,5Cvvvvvvzk2oUUUUUU",
"UUUUUUUUUU,i3,MLVvvvzzk2oUUUUUUU",
"UUUUUUUUUU,3,MIVvvzs@@@@UUUUUUUU",
"UUUUUUUUUUU&zKVvzzt@>>>:@UUUUUUU",
"UUUUUUUUUU$zCnzzzs@>>>>>>XUUUUUU",
"UUUUUUUUUU$$$$$4z@:>;;;;>:XUUUUU",
"UUUUUUUUUUUU$3$kk@>>IIII>>.UUUUU",
"UUUUUUUUUUUU$<$kk@>>IIII>>.UUUUU",
"UUUUUUUUUUUUU$0kf@:>>>>>>-.UUUUU",
"UUUUUUUUUUUUU$yf$U@>>>>>>.UUUUUU",
"UUUUUUUUUUUUU$y$UUUX:>>-.UUUUUUU",
"UUUUUUUUUUUUU$$UUUUUX...UUUUUUUU",
"UUUUUUUUUUUUU$UUUUUUUUUUUUUUUUUU"
};
